<svg id="图层_1" data-name="图层 1" xmlns="http://www.w3.org/2000/svg" xmlns:xlink="http://www.w3.org/1999/xlink" viewBox="0 0 762.4 159.87"><defs><style>.cls-1{fill:none;}.cls-2{clip-path:url(#clip-path);}.cls-3{fill:#0c4994;}.cls-4{fill:#fff;}</style><clipPath id="clip-path"><rect class="cls-1" width="762.4" height="159.87"/></clipPath></defs><g class="cls-2"><path class="cls-3" d="M244.57,32.83a7.78,7.78,0,0,0-1.63-1.61,12.7,12.7,0,0,0-1.49-.92,21.06,21.06,0,0,1-2.71-1.68,5.7,5.7,0,0,0-2.55-1,21.84,21.84,0,0,1-3.3-.73,13.41,13.41,0,0,0-3-.57c-1.4-.1-2.8-.16-4.21-.16-1.61,0-3.2,0-4.81,0s-3.35-.08-5-.24a7,7,0,0,0-1.71,0,.45.45,0,0,1-.52-.37c-.08-.52-.19-1-.3-1.56a17.87,17.87,0,0,0-.72-2.47,1.75,1.75,0,0,1,0-1.15,3.1,3.1,0,0,0,0-1.76c-.16-.52-.33-1-.54-1.53a7.6,7.6,0,0,0-.81-1.48,2.81,2.81,0,0,1-.29-.54,6.4,6.4,0,0,0-.71-1.24q-.58-.81-1.23-1.59a6.49,6.49,0,0,0-2.2-1.69c-.74-.34-1.47-.71-2.18-1.11l-.54-.12a2,2,0,0,1-1.19-.69,1.66,1.66,0,0,0-.75-.5A3.39,3.39,0,0,0,200.76,8a1.26,1.26,0,0,0-.69.27l0,0a.45.45,0,0,1-.61-.17,1.14,1.14,0,0,0-.85-.54,2.88,2.88,0,0,1-1.67-.7.94.94,0,0,0-1-.13,3.63,3.63,0,0,1-1,.36,2.06,2.06,0,0,1-.7,0A3.43,3.43,0,0,1,193,6.74a1,1,0,0,0-1.24.28,1.26,1.26,0,0,1-.71.48,1,1,0,0,1-.46,0A2.52,2.52,0,0,1,189.42,7a.19.19,0,0,0-.24,0,.32.32,0,0,0-.12.32.83.83,0,0,0,.66.7.48.48,0,0,1,.37.52,1.34,1.34,0,0,0,.37,1.11.9.9,0,0,1,.19.92,1.68,1.68,0,0,0,.2,1.55,2.29,2.29,0,0,1,.41,1.41,12.06,12.06,0,0,0,.06,2.08c.11.93.25,1.84.41,2.76a19.48,19.48,0,0,1,.26,3.42,4.74,4.74,0,0,0,.43,2,5.81,5.81,0,0,1,.52,2.32c0,.74,0,1.48,0,2.22a.81.81,0,0,1-.45.73,2.2,2.2,0,0,0-.89.82,5.46,5.46,0,0,1-.55.78,13.27,13.27,0,0,1-2.29,2.14,9.71,9.71,0,0,0-1.81,1.7c-.72.86-1.46,1.72-2.21,2.55a1.88,1.88,0,0,0-.45.8,5.47,5.47,0,0,1-.59,1.41,2.3,2.3,0,0,0-.3.88,1.66,1.66,0,0,1-.24.72c-.2.34-.41.66-.64,1a1,1,0,0,0,.07,1.23.34.34,0,0,1,.23.17.23.23,0,0,0,.31.08.15.15,0,0,0,.08-.08,1.3,1.3,0,0,1,.38-.43,24.24,24.24,0,0,1,4.53-2.8,13.26,13.26,0,0,1,2.67-.95,2.09,2.09,0,0,1,.55-.05.45.45,0,0,0,.45-.33v0a.35.35,0,0,1,.46-.21.67.67,0,0,1,.2.12.52.52,0,0,1,.19.53.48.48,0,0,0,.2.53.52.52,0,0,1,.23.39,1,1,0,0,1,0,.35.7.7,0,0,0,.12.44.76.76,0,0,0,.24.2.26.26,0,0,1,.11.33.84.84,0,0,0,.07.74,1,1,0,0,1-.12,1.12.77.77,0,0,0-.15.82,2.59,2.59,0,0,1,.19,1.38.51.51,0,0,1-.18.37,1,1,0,0,0-.21,1.06,5.34,5.34,0,0,0,.39.75.73.73,0,0,1-.08.82.9.9,0,0,0-.18.28,1.09,1.09,0,0,0-.1.54q0,.31,0,.63a.3.3,0,0,1-.13.26.7.7,0,0,0-.26.39.28.28,0,0,1-.26.21,3.62,3.62,0,0,1-.57,0,16.57,16.57,0,0,0-2,0,.19.19,0,0,1-.18-.12.54.54,0,0,0-.61-.35.9.9,0,0,0-.73.85.39.39,0,0,1-.3.35.8.8,0,0,1-.58-.1.74.74,0,0,0-.44-.08,1.13,1.13,0,0,1-1-.35.47.47,0,0,0-.65,0l0,0a1.49,1.49,0,0,1-.67.41.81.81,0,0,1-.38,0,1.83,1.83,0,0,1-1.08-.85.73.73,0,0,0-.53-.36.2.2,0,0,1-.14-.06.25.25,0,0,1,0-.34.23.23,0,0,0,0-.32.28.28,0,0,0-.18-.06l-.69,0a.75.75,0,0,1-.7-.28A5,5,0,0,0,180,48a7.46,7.46,0,0,1-2.11-2.08c-.59-.89-1.23-1.75-1.9-2.57a7.1,7.1,0,0,1-1.23-2.28.35.35,0,0,0-.38-.24.45.45,0,0,0-.35.29,5.78,5.78,0,0,0-.33,1.58,10.7,10.7,0,0,0,.12,2.19c.15.92.28,1.83.38,2.76A16.92,16.92,0,0,0,175.68,53q1.09,2.34,2,4.74a11.85,11.85,0,0,0,2.46,3.84,30.07,30.07,0,0,1,2.38,2.78,3.21,3.21,0,0,0,2,1.23,3,3,0,0,1,1.48.77.84.84,0,0,0,1.06,0,.6.6,0,0,1,.67,0,1,1,0,0,1,.29.25.52.52,0,0,0,.7.13l.56-.38a1.08,1.08,0,0,0,.44-1,1.42,1.42,0,0,1,.11-.76.39.39,0,0,1,.15-.16.34.34,0,0,1,.47.13.48.48,0,0,0,.61.2.77.77,0,0,0,.44-.49.35.35,0,0,1,.33-.26H192a.23.23,0,0,1,.21.17,5.88,5.88,0,0,0,.61,1.57,4,4,0,0,1,.49,1.9,12.48,12.48,0,0,0,.69,4.19,4.86,4.86,0,0,1-.35,4,3.13,3.13,0,0,0-.34,2.1,37.15,37.15,0,0,1,.34,11c-.24,2.09-.42,4.19-.52,6.29a19.72,19.72,0,0,0,.53,5.62,47.15,47.15,0,0,0,3.22,9.08c.36.76.7,1.54,1,2.32a37.67,37.67,0,0,1,1.68,5.48,8.35,8.35,0,0,0,1.85,3.58,1.26,1.26,0,0,0,1.68.19,5.64,5.64,0,0,0,2-2.77,23.33,23.33,0,0,1,.94-2.53,10.71,10.71,0,0,0,.84-4.14,40.75,40.75,0,0,1,.38-5.63,22.43,22.43,0,0,0-.2-7.22,6.22,6.22,0,0,1-.09-1.43,3.33,3.33,0,0,1,.31-1.22,3,3,0,0,0,.26-.93,10.39,10.39,0,0,0,0-1.58,2.55,2.55,0,0,1,.22-1.12,2.9,2.9,0,0,0,.2-.87,12.2,12.2,0,0,0-.06-2.09.72.72,0,0,1,.21-.57.67.67,0,0,0,.1-.82,1.75,1.75,0,0,1-.25-.86c0-.72,0-1.43.05-2.15a2.8,2.8,0,0,0-.05-.71,8,8,0,0,1-.2-1.69c-.06-1.82-.14-3.63-.26-5.45a21,21,0,0,1,.1-3.88,2.89,2.89,0,0,1,.26-.88c.13-.26.26-.52.4-.77a1.83,1.83,0,0,0,.16-1.58,3.31,3.31,0,0,1,0-2.24,4,4,0,0,0,.16-2,2.22,2.22,0,0,1,.4-1.73,19.48,19.48,0,0,0,1.38-2.1.83.83,0,0,1,.71-.4,8.14,8.14,0,0,0,1.64-.15,10.93,10.93,0,0,0,2.25-.72,1.63,1.63,0,0,0,.66-.56.42.42,0,0,0-.12-.59.41.41,0,0,0-.44,0h0a.44.44,0,0,1-.58-.22.27.27,0,0,1,0-.3,14.41,14.41,0,0,1,1.13-1.08,10.26,10.26,0,0,1,3.27-1.88,9.36,9.36,0,0,0,1.37-.61,3.37,3.37,0,0,0,.87-.67,6.51,6.51,0,0,1,2.3-1.54,8.21,8.21,0,0,0,2.1-1.23,5.34,5.34,0,0,1,3-1.18A3.06,3.06,0,0,0,231,50.11a10.13,10.13,0,0,1,3.22-3.06,10.39,10.39,0,0,0,2.65-2.3,1.44,1.44,0,0,0,.31-.66,1,1,0,0,0-.15-.72v0a.16.16,0,0,1,.07-.22l.35-.22c.15-.11.32-.21.47-.3a2.72,2.72,0,0,1,.35-.16,1,1,0,0,1,.38-.06h0a.25.25,0,0,1,.22.27.21.21,0,0,0,.18.24.2.2,0,0,0,.15,0A5.49,5.49,0,0,0,240.73,41a1.18,1.18,0,0,1,.59-.53.22.22,0,0,0,.12-.29l0,0a.43.43,0,0,1,0-.12.21.21,0,0,1,.22-.21,1.13,1.13,0,0,0,.76-.27,3.38,3.38,0,0,0,1-1.41,3.36,3.36,0,0,1,1.19-1.57,1.31,1.31,0,0,0,.52-.81c.09-.53.16-1,.21-1.59a1,1,0,0,0-.19-.65C244.91,33.28,244.73,33.06,244.57,32.83ZM222.92,36.1a1.21,1.21,0,0,1-.67.3,1.06,1.06,0,0,0-.39.13,1,1,0,0,0-.46.56,7.59,7.59,0,0,1-.83,1.75,1.52,1.52,0,0,0-.23.86.32.32,0,0,1,0,.19,1.51,1.51,0,0,1-1.15,1,1.67,1.67,0,0,0-.83.44,3.58,3.58,0,0,1-.73.55,2.11,2.11,0,0,1-.85.3.38.38,0,0,0-.32.41l0,.09a1.92,1.92,0,0,0,.59.82,2,2,0,0,0,1.48.46.2.2,0,0,1,.1.39,2.44,2.44,0,0,0-.77.54,7.84,7.84,0,0,1-3.62,2,9.33,9.33,0,0,0-1.64.56,1.49,1.49,0,0,0-.7.68.77.77,0,0,1-1,.33c-.29-.14-.57-.26-.87-.37a.61.61,0,0,1-.38-.39,9.11,9.11,0,0,1-.17-3.33,39.38,39.38,0,0,1,.95-5.07c.17-.67.35-1.33.55-2a1.16,1.16,0,0,0-.08-.91.5.5,0,0,1,.09-.57.8.8,0,0,0,.25-.72.52.52,0,0,1,0-.18.46.46,0,0,1,.57-.31,4.1,4.1,0,0,0,1.94.1,7.82,7.82,0,0,1,3.16,0,10.13,10.13,0,0,0,4.28-.1,8.84,8.84,0,0,1,2.12-.24.27.27,0,0,1,.25.27A1.93,1.93,0,0,1,222.92,36.1Z"/><path class="cls-3" d="M761.6,25.22a9.6,9.6,0,0,0-5-3.32A37.8,37.8,0,0,0,743,20.67a90.79,90.79,0,0,0-21.79,4.78,20.23,20.23,0,0,0-3.93,1.87.67.67,0,0,1-.71,0l-.08,0s0,0-.07-.05a.32.32,0,0,1,0-.45,27.84,27.84,0,0,1,2.13-1.91,72.42,72.42,0,0,0,7.69-7.27,26.06,26.06,0,0,1,7.83-5.83,82.39,82.39,0,0,0,10.34-6,30.22,30.22,0,0,1,3.77-2.21.57.57,0,0,0,.26-.78.64.64,0,0,0-.19-.21,6.24,6.24,0,0,0-2-.93,3.89,3.89,0,0,0-2.29.07,22.92,22.92,0,0,0-3.69,1.64q-3.63,2-7.2,4.05a25.55,25.55,0,0,0-5.49,4.27,12.38,12.38,0,0,1-3.27,2.43,22.15,22.15,0,0,1-3.39,1.39,1.7,1.7,0,0,1-.32.1q-5.25,1.6-10.4,3.56t-10.46,3.47A5.42,5.42,0,0,0,697.43,24a1.72,1.72,0,0,0-.51,1.05.56.56,0,0,0,.43.6,2.64,2.64,0,0,1,1.72,1.17,2,2,0,0,0,1.41.86.56.56,0,0,0,.4-.12,4.07,4.07,0,0,1,.93-.59,3.4,3.4,0,0,1,1.72-.27,4.62,4.62,0,0,0,3.45-1,9.28,9.28,0,0,1,2.47-1.45,3.69,3.69,0,0,0,1.48-1,.12.12,0,0,0,0-.16.57.57,0,0,0-.15-.12.44.44,0,0,1-.21-.17.46.46,0,0,1,.16-.61c.39-.22.76-.46,1.13-.7a34.67,34.67,0,0,1,9.37-4.47.29.29,0,0,1,.11-.11.31.31,0,0,1,.25,0,.2.2,0,0,1,.13.23.7.7,0,0,1-.31.49,11.24,11.24,0,0,0-1.88,1.55q-4,4.14-7.6,8.57a14,14,0,0,1-3.5,3.05q-4.15,2.54-8.35,5c-1.43.85-2.83,1.74-4.19,2.69A58.11,58.11,0,0,0,681,53.75q-3.74,5.63-7.15,11.46a33.45,33.45,0,0,0-4.39,13.11,1.61,1.61,0,0,0,.74,1.57,2.21,2.21,0,0,0,1.64.3,2.31,2.31,0,0,0,1.79-1.8,18,18,0,0,1,1.19-3.71c1.28-2.94,2.58-5.86,3.87-8.79a93.27,93.27,0,0,1,5.67-10.8,71,71,0,0,1,9-11.77,22.22,22.22,0,0,1,4-3.35,4.83,4.83,0,0,1,1-.5,2.06,2.06,0,0,1,.74-.08.34.34,0,0,1,.29.25.73.73,0,0,1-.21.7c-.56.52-1.11,1.07-1.63,1.63-2.32,2.49-4.61,5-6.84,7.57A27.79,27.79,0,0,0,688,53.27a.84.84,0,0,0,0,.9.39.39,0,0,0,.55.12.26.26,0,0,0,.11-.12,34.13,34.13,0,0,1,5.28-6.46,129.7,129.7,0,0,0,9.58-10.17,9.87,9.87,0,0,1,4.62-3.06c1.71-.51,3.41-1.12,5.06-1.78a100.9,100.9,0,0,1,22.44-6.17,90.55,90.55,0,0,1,13.36-1,12.1,12.1,0,0,1,3.64.52c1.72.5,3.42,1,5.13,1.56a1.26,1.26,0,0,1,.89,1.4,4.66,4.66,0,0,1-1.19,2.53q-1.89,2.07-3.94,4a29.64,29.64,0,0,1-8.47,5.64q-7.62,3.38-15.43,6.32a43.34,43.34,0,0,1-6.87,2c-1.41.28-2.83.48-4.25.62a47.49,47.49,0,0,0-7.76,1.41,13.29,13.29,0,0,0-2.09.73,5.49,5.49,0,0,0-2.31,2,4.2,4.2,0,0,0-.41,3.89,1.25,1.25,0,0,0,1.26.77,4.66,4.66,0,0,1,2.62.52A5.46,5.46,0,0,1,712,61.39a4.73,4.73,0,0,1,.6,1.86,14.06,14.06,0,0,0,.57,2.71.66.66,0,0,1-.41.81,3.88,3.88,0,0,1-1.21.24,2.1,2.1,0,0,1-.93-.15,2.09,2.09,0,0,0-.64-.17,9.8,9.8,0,0,1-2.47-.53,2.93,2.93,0,0,0-2,0,9.66,9.66,0,0,0-2.06,1.09c-.49.33-1,.66-1.5,1a1.1,1.1,0,0,0-.53,1.09,9.33,9.33,0,0,1-.24,3.64,8.86,8.86,0,0,0-.28,3,.54.54,0,0,1-.09.32.8.8,0,0,0,.17,1,2.09,2.09,0,0,1,.65,1,4.14,4.14,0,0,1,.15,1.21,4.4,4.4,0,0,0,.37,1.78,9.93,9.93,0,0,0,2.1,3.07,4.38,4.38,0,0,0,2.83,1.25,6.15,6.15,0,0,0,1.91-.2c2.1-.58,4.24-1.09,6.37-1.53a3.14,3.14,0,0,0,1.15-.51,1.37,1.37,0,0,1,1.09-.24.36.36,0,0,1,.32.32c.09.39.16.78.25,1.17a5.92,5.92,0,0,1-.28,3.43,31.53,31.53,0,0,0-1.33,4.13A4.47,4.47,0,0,1,714.47,95a1.38,1.38,0,0,1-1.25.08,37.21,37.21,0,0,1-3.48-1.69q-2.18-1.23-4.24-2.63a10.68,10.68,0,0,0-2.06-1.09.59.59,0,0,1-.36-.41,1.37,1.37,0,0,0-.65-.8,11.77,11.77,0,0,1-3.27-2.59.26.26,0,0,0-.36,0l0,.06a1.1,1.1,0,0,0-.08,1,2.11,2.11,0,0,0,1,1.13,1.83,1.83,0,0,1,.85,1.09c.13.48.26,1,.4,1.42a1.13,1.13,0,0,0,.57.68,5.18,5.18,0,0,1,1.41,1.09c.67.73,1.37,1.44,2.1,2.1a4.44,4.44,0,0,1,1.14,1.7A9.3,9.3,0,0,0,708,99.24a4,4,0,0,0,2.13,1.26,8.65,8.65,0,0,1,2.31.84,10.68,10.68,0,0,1,1.7,1.13,3.6,3.6,0,0,0,3.11.73,13.55,13.55,0,0,0,2.26-.73A6,6,0,0,0,722.84,99a33.28,33.28,0,0,0,1-3.23c.34-1.46.64-2.93.89-4.4a32.91,32.91,0,0,0,.44-5.86,3.5,3.5,0,0,1,.33-1.56,2.36,2.36,0,0,1,1.7-1.33,16.65,16.65,0,0,1,3.08-.29,2,2,0,0,0,.8-.17,4.77,4.77,0,0,0,2.71-3c.2-.64.41-1.27.64-1.9a2.11,2.11,0,0,0-.2-1.89.9.9,0,0,0-.4-.37,1,1,0,0,1-.52-1,1.74,1.74,0,0,1,.2-.58.32.32,0,0,0-.14-.44l-.11,0a3.16,3.16,0,0,1-1.21-.44,8.19,8.19,0,0,1-.77-.54.56.56,0,0,1-.14-.16.61.61,0,0,1,.18-.85.92.92,0,0,0,.36-1.13,2.09,2.09,0,0,0-.77-1,2.72,2.72,0,0,0-2.25-.4.41.41,0,0,1-.22,0,.49.49,0,0,1-.39-.57.89.89,0,0,0-.21-.73,1.44,1.44,0,0,0-1.09-.48,17,17,0,0,0-2.14.15,4.36,4.36,0,0,1-2.39-.36,6.31,6.31,0,0,1-1.94-1.38,3.27,3.27,0,0,1-.93-2.09,12.91,12.91,0,0,0-.36-2.31,8.57,8.57,0,0,0-2.28-3.92,8.2,8.2,0,0,0-2.86-1.85l-1.58-.65a.32.32,0,0,1-.12-.11.28.28,0,0,1,.08-.4,3.35,3.35,0,0,1,1.37-.51c3.23-.4,6.44-.92,9.62-1.58q3.13-.63,6.23-1.45a62.9,62.9,0,0,0,13.9-5.5q4-2.15,8-4.12a26.13,26.13,0,0,0,8.23-6.3,12.41,12.41,0,0,0,2.81-5.79A4.08,4.08,0,0,0,761.6,25.22Z"/><path class="cls-3" d="M532,57.83A3.28,3.28,0,0,0,533,56a1.61,1.61,0,0,1,.44-.88,2.45,2.45,0,0,0,.7-1.95,6.1,6.1,0,0,1,0-1.54l.18-1.37a1.62,1.62,0,0,1,.78-1.18,5.94,5.94,0,0,0,2.57-3.27,4.69,4.69,0,0,1,.43-1,5.13,5.13,0,0,1,1.15-1.35,23.35,23.35,0,0,0,2.94-2.86,4.65,4.65,0,0,1,2.16-1.43,4.1,4.1,0,0,0,2-1.43.24.24,0,0,0,0-.31.34.34,0,0,0-.25-.09l-.51,0a.09.09,0,0,1-.07,0,.11.11,0,0,1,0-.16c.21-.28.42-.57.65-.85a6.84,6.84,0,0,1,.75-.77,4.92,4.92,0,0,1,.9-.61.17.17,0,0,1,.19,0,.16.16,0,0,1,0,.24.45.45,0,0,0-.06.53.44.44,0,0,0,.53.19c.46-.14.92-.3,1.37-.46a11,11,0,0,0,1.92-.85,2.68,2.68,0,0,0,.91-.86l.11-.12a.62.62,0,0,1,.88.06,1.93,1.93,0,0,0,1.52.65,6.71,6.71,0,0,1,1.84.21,2.61,2.61,0,0,1,1.38.85,1.08,1.08,0,0,0,1.52.12l.06-.06a3.85,3.85,0,0,0,1.11-2.17,11.87,11.87,0,0,1,.93-3,.69.69,0,0,1,.52-.4,22.43,22.43,0,0,0,2.31-.45c1.3-.34,2.62-.62,3.94-.86a9.2,9.2,0,0,1,2.77-.07,15.5,15.5,0,0,0,5.13-.19,3.29,3.29,0,0,1,2,.19,1.23,1.23,0,0,1,.72.93,13.31,13.31,0,0,1,.19,2.09,6,6,0,0,1-.52,2.58A27.78,27.78,0,0,1,576,39.29a12.14,12.14,0,0,1-4,3.35,14.53,14.53,0,0,0-3.1,2.23.5.5,0,0,1-.52.13.85.85,0,0,0-1,.6,1.58,1.58,0,0,1-.79,1,6.44,6.44,0,0,0-1.06.73,13.3,13.3,0,0,1-1.18.92,6.39,6.39,0,0,1-3,1.12c-1,.1-2.07.26-3.1.46a7.64,7.64,0,0,0-2.17.79,1.14,1.14,0,0,1-.92.06.18.18,0,0,0-.22.1.2.2,0,0,0,0,.17,1.66,1.66,0,0,0,.26.27,1.59,1.59,0,0,0,1.38.32,11.86,11.86,0,0,1,3.56-.33,18.66,18.66,0,0,0,3.95-.2,10.51,10.51,0,0,1,1.78-.13,19.22,19.22,0,0,0,4.34-.46,18.09,18.09,0,0,0,6.12-2.63,47.56,47.56,0,0,0,5.58-4.4,9.52,9.52,0,0,0,2.91-5.13,34.46,34.46,0,0,0,.65-6.65,11.63,11.63,0,0,0-.65-3.83,5.91,5.91,0,0,0-1.09-1.86A9.76,9.76,0,0,0,578,22.65a19.41,19.41,0,0,0-8.17.29c-2.08.52-4.16,1.08-6.22,1.66a11.33,11.33,0,0,0-2.39,1l-.05,0a.71.71,0,0,1-.93-.35,4.87,4.87,0,0,0-1-1.44,21.09,21.09,0,0,1-1.72-2.06,4.15,4.15,0,0,0-1.41-1.19,6.42,6.42,0,0,1-2.27-1.9c-.1-.13-.2-.26-.29-.4a2.39,2.39,0,0,0-1.52-1,14.68,14.68,0,0,0-2.47-.26,2.12,2.12,0,0,1-1.15-.37,1.6,1.6,0,0,0-.89-.31l-1.87,0c-1.1,0-2.19,0-3.29-.06a.9.9,0,0,0-.64.26,5.73,5.73,0,0,0-1.08,1.37.94.94,0,0,0,0,.86,1.09,1.09,0,0,1,.1.53,1.08,1.08,0,0,0,.29.82.88.88,0,0,1,.25.51,3.69,3.69,0,0,1,0,1.48.94.94,0,0,1-.32.59c-.77.69-1.54,1.36-2.34,2a.48.48,0,0,1-.11.09,32.24,32.24,0,0,0-6.78,7.94,58,58,0,0,0-4.06,8.12A16.78,16.78,0,0,0,527,42.8a2.66,2.66,0,0,1-.46.94,12.06,12.06,0,0,0-1.2,1.94,9.34,9.34,0,0,1-1.24,1.91s-.05.06-.08.07a.31.31,0,0,1-.42-.1,3,3,0,0,1-.32-.71,13.62,13.62,0,0,0-1-2.41,26.18,26.18,0,0,1-1.56-3.65,15.15,15.15,0,0,0-1.62-3.43,19.79,19.79,0,0,1-2-4.09s0,0,0,0a1.74,1.74,0,0,1-.1-.61c0-.48,0-1-.07-1.45a.69.69,0,0,1,.39-.66c.37-.19.73-.37,1.09-.57.62-.33,1.23-.67,1.84-1,1.2-.71,2.41-1.39,3.62-2.08a.62.62,0,0,0,.32-.49,2.77,2.77,0,0,1,.29-1,22.58,22.58,0,0,0,.91-2.08,1.05,1.05,0,0,0,0-.7c0-.15-.1-.31-.14-.46l-.39-1.65a.93.93,0,0,0-1-.72,6.31,6.31,0,0,0-1.49.47,33.74,33.74,0,0,1-3.7,1.44,8.53,8.53,0,0,0-2.84,1.58,1.61,1.61,0,0,0-.57,1.42.76.76,0,0,1-.17.56,3,3,0,0,0-.35.45,11.19,11.19,0,0,1-2.64,2.72,16.8,16.8,0,0,0-3.38,3.25q-4.95,6.27-10.24,12.26a27.15,27.15,0,0,0-3.8,5.63,14.11,14.11,0,0,1-3.21,4.15,1,1,0,0,0-.27,1,3.88,3.88,0,0,1,.18.82,4.81,4.81,0,0,1,0,.76c-.05.33-.09.66-.12,1s-.1.85-.12,1.27a1,1,0,0,0,.9,1.07h.1a7.67,7.67,0,0,0,2.51-1.94,12.5,12.5,0,0,0,1.71-2.59,25.16,25.16,0,0,1,3.13-4.9,44.52,44.52,0,0,0,3.34-4.71Q504,43.63,505,41.65a17.47,17.47,0,0,1,5.54-6.14,20.64,20.64,0,0,0,2.66-2.17.77.77,0,0,1,.94-.12,1.12,1.12,0,0,1,.49.6c0,.12.06.23.08.35a2.19,2.19,0,0,1,0,.51,6.1,6.1,0,0,0,.07,1.42,11.58,11.58,0,0,0,.79,2.59c.51,1.14,1,2.27,1.58,3.4a20.07,20.07,0,0,1,1.66,5.27,28.76,28.76,0,0,1,.42,5.86c0,1.76-.18,3.51-.38,5.26a2.69,2.69,0,0,1-1.12,1.91.47.47,0,0,1-.52,0,1.37,1.37,0,0,1-.56-.56c-.19-.38-.39-.76-.56-1.16s-.43-.92-.67-1.37a6.78,6.78,0,0,1-.64-1.8c-.23-1.18-.5-2.36-.78-3.54a9.75,9.75,0,0,1-.22-3.36,1,1,0,0,0-.83-1.12,7.1,7.1,0,0,1-2.38-.94,1.24,1.24,0,0,0-1-.11,1.08,1.08,0,0,0-.6.49,13.09,13.09,0,0,1-1.28,1.8.5.5,0,0,0,0,.67.84.84,0,0,1,.27.65,8.15,8.15,0,0,1-.27,1.76c-.53,1.9-1,3.81-1.36,5.75q-1,5.28-1.56,10.63-.27,2.79-.52,5.59c-.07.84-.15,1.69-.22,2.53a35.55,35.55,0,0,1-2,9.11,2.8,2.8,0,0,0,.17,2.23,7.36,7.36,0,0,1,.74,2.08.66.66,0,0,0,.79.52.6.6,0,0,0,.28-.13h0a.28.28,0,0,1,.38.09.53.53,0,0,0,.61.19,1.14,1.14,0,0,0,.73-.87,2.57,2.57,0,0,1,1-1.61c.28-.21.57-.41.88-.6a.46.46,0,0,0,.13-.61,1.74,1.74,0,0,1-.27-1.13,61.7,61.7,0,0,0,.27-7.45,23.26,23.26,0,0,0-.18-2.34,4.74,4.74,0,0,1,.15-1.87c.11-.4.24-.79.37-1.18a1.64,1.64,0,0,0,0-1.07.25.25,0,0,0-.3-.15,1,1,0,0,0-.52.45,10.38,10.38,0,0,1-.59,1,2,2,0,0,0-.28,1.37.55.55,0,0,1,0,.18.44.44,0,0,1-.54.3.46.46,0,0,1-.33-.48c0-.16,0-.31,0-.46a18.38,18.38,0,0,1,.53-3.21c.32-1.24.58-2.49.8-3.74.31-1.78.58-3.56.8-5.36.27-2.13.56-4.27.87-6.4a3.1,3.1,0,0,1,.74-1.61.1.1,0,0,1,.08-.05.16.16,0,0,1,.19.12,8.54,8.54,0,0,1,.2,1.6,9.23,9.23,0,0,0,.46,2.67A23,23,0,0,0,511.6,61a12.69,12.69,0,0,1,1,2.87,5.36,5.36,0,0,0,.6,1.54l1.2,2a.74.74,0,0,0,1,.25l.06-.05c.4-.29.8-.59,1.2-.86a2.22,2.22,0,0,1,.81-.34,4.3,4.3,0,0,0,2.07-1.07,10.21,10.21,0,0,0,2.08-2.8c.63-1.28,1.28-2.55,1.93-3.81a3.88,3.88,0,0,0,.46-1.86v0a.29.29,0,0,1,.3-.3.35.35,0,0,1,.33.3c0,.26.06.51.07.77a.93.93,0,0,0,.7.84,4.35,4.35,0,0,1,1.69.88,2.36,2.36,0,0,0,2.9.15A14.94,14.94,0,0,0,532,57.83Zm.91-16.77a4,4,0,0,0,.75-3.65,5.14,5.14,0,0,1,.08-3.08,12.83,12.83,0,0,1,2.72-4.52A24,24,0,0,0,538.74,27a3.94,3.94,0,0,1,1-1,4.18,4.18,0,0,1,1.22-.59,4,4,0,0,1,1.54-.12,4.13,4.13,0,0,1,2.8,1.58c.41.53.83,1,1.28,1.52.21.21.4.42.61.62.46.45,1,.88,1.45,1.29.24.2.49.4.75.59a.5.5,0,0,1,.18.27.48.48,0,0,1-.36.57,10.09,10.09,0,0,0-4.26,2.07,25.51,25.51,0,0,1-3.21,2.27,27.18,27.18,0,0,0-3.52,2.52c-.92.76-1.84,1.52-2.78,2.27A8.05,8.05,0,0,1,533.48,42a.66.66,0,0,1-.51-.12A.6.6,0,0,1,532.9,41.06Z"/><path class="cls-3" d="M365.39,38.8a.13.13,0,0,0-.07-.18l-.06,0a.59.59,0,0,0-.49.27c-.78,1.36-1.57,2.72-2.36,4.06L361.79,44c-1.15,2-2.3,3.91-3.46,5.85a36.34,36.34,0,0,1-6.75,8.22,4.22,4.22,0,0,1-1.19.78l-.09,0a.3.3,0,0,1-.33-.27c0-.23-.05-.47-.06-.71a10.38,10.38,0,0,1,.36-3.23A26.69,26.69,0,0,0,351,51.1a9.44,9.44,0,0,1,1.31-3.77,1.73,1.73,0,0,1,1.43-.84,2.34,2.34,0,0,0,1.2-.36,5.09,5.09,0,0,0,1.48-1.37,6,6,0,0,1,2.39-1.9,2.74,2.74,0,0,0,1.32-1.26,1,1,0,0,0,.11-.24,3.5,3.5,0,0,0,.24-1.78,2,2,0,0,0-1-1.56,7.32,7.32,0,0,1-1.33-1,5.55,5.55,0,0,0-2.62-1.33l-.12,0a.8.8,0,0,1-.47-1,2.86,2.86,0,0,1,1.6-1.67,5.22,5.22,0,0,0,2.57-2.27,11,11,0,0,0,1.44-5.48,17.25,17.25,0,0,0-.19-2.39,25,25,0,0,0-1.19-4.78c-.52-1.44-1-2.9-1.55-4.35a4.42,4.42,0,0,0-1.56-2.09,4.3,4.3,0,0,0-2.32-.83A2.33,2.33,0,0,0,351.28,13a6.94,6.94,0,0,1-.53,2.21c-.29.67-.55,1.34-.78,2a12.48,12.48,0,0,0-.53,2.27,14,14,0,0,1-1.73,5.09.79.79,0,0,1-.51.17,1.85,1.85,0,0,0-.8.16,2.09,2.09,0,0,0-1.08,1c-.49,1-.95,2-1.38,3a20.84,20.84,0,0,1-1.79,3.36,1.56,1.56,0,0,1-.78.6,1.88,1.88,0,0,0-.84.54c-.47.52-.92,1-1.37,1.56-.61.71-1.22,1.43-1.81,2.16a33.34,33.34,0,0,0-2.75,4,7.83,7.83,0,0,1-1.85,2.16,9.66,9.66,0,0,0-1.8,1.87,1.85,1.85,0,0,0-.36,1.31.53.53,0,0,0,.48.48.82.82,0,0,0,.6-.18,11.7,11.7,0,0,1,1.07-.78l2.16-1.37q1.47-.95,3-1.8c.54-.3,1.11-.61,1.67-.89a10.24,10.24,0,0,0,1.19-.73,2.15,2.15,0,0,1,1.21-.36,1.53,1.53,0,0,1,.36.07l1.13.36a.86.86,0,0,0,.9-.24l0,0a.28.28,0,0,1,.4,0,.58.58,0,0,0,.6.17L346,41h0a.35.35,0,0,1,.41.25.71.71,0,0,1-.19.66,5.35,5.35,0,0,0-.95,1.31,5.79,5.79,0,0,0-.6,1.86,3.08,3.08,0,0,1-2.39,2.57,2.63,2.63,0,0,0-.78.3,9.41,9.41,0,0,0-1.74,1.26A20.21,20.21,0,0,1,334,52.86a11.76,11.76,0,0,1-1.68.54,8.67,8.67,0,0,0-1.73.61,1,1,0,0,0-.54.65.62.62,0,0,1-.67.48,4.33,4.33,0,0,0-1,.07l-.54.12a2.93,2.93,0,0,0-1,.42,3.64,3.64,0,0,1-1.43.53,2.37,2.37,0,0,1-.84,0L322.68,56a2.5,2.5,0,0,0-1.67.29,12,12,0,0,0-1.5,1,.77.77,0,0,0-.12,1.08,1.48,1.48,0,0,1,.3,1.14.94.94,0,0,0,.72,1.07,14.65,14.65,0,0,1,1.43.43.46.46,0,0,1,.31.35.56.56,0,0,0,.63.48.58.58,0,0,0,.38-.24,1,1,0,0,1,.6-.42,3.85,3.85,0,0,0,.9-.36.65.65,0,0,1,.78.12,2.66,2.66,0,0,0,1,.66,2.14,2.14,0,0,0,1.91-.12,5.5,5.5,0,0,1,2.28-.72,15.69,15.69,0,0,0,3.17-.6,4.36,4.36,0,0,1,1-.17.21.21,0,0,1,.24.17.81.81,0,0,1-.17.72,9,9,0,0,0-1,1.44,11.67,11.67,0,0,1-2.58,3.11,1,1,0,0,0-.24,1.14.11.11,0,0,1,0,.07.48.48,0,0,1-.32.59.76.76,0,0,0-.48.36A15.29,15.29,0,0,1,329,69.33c-.5.6-1,1.22-1.44,1.85a.2.2,0,0,1-.24.07.8.8,0,0,1-.42-.6,1.54,1.54,0,0,1,.18-.9.33.33,0,0,0,0-.36.23.23,0,0,0-.33-.09.26.26,0,0,0-.09.09c-.15.28-.31.56-.47.84a2.65,2.65,0,0,0-.36,1,1,1,0,0,0,.83,1.12l.12,0a.34.34,0,0,1,.34.24.36.36,0,0,1-.22.47.48.48,0,0,0-.28.61.47.47,0,0,0,.58.28l.1,0a.86.86,0,0,1,1,.69,1.16,1.16,0,0,1-.06.66.38.38,0,0,0,.21.48.61.61,0,0,0,.27,0,1.6,1.6,0,0,1,.78-.12.75.75,0,0,1,.54.24,1.69,1.69,0,0,0,1.2.47,1.25,1.25,0,0,0,1-.54s.06,0,.11-.06a.16.16,0,0,1,.19.13.42.42,0,0,0,.5.31.52.52,0,0,0,.22-.14A.55.55,0,0,1,334,76a1.48,1.48,0,0,0,1,.36,2.78,2.78,0,0,0,1-.18,4,4,0,0,0,1.61-1.13,3.25,3.25,0,0,0,.66-1.26,1.7,1.7,0,0,1,.84-1.08,4,4,0,0,1,.83-.35.87.87,0,0,1,.67,0,.56.56,0,0,1,.29.54c0,.5-.07,1-.12,1.49s-.07.88-.12,1.33a5.86,5.86,0,0,0,.36,2.62,14.46,14.46,0,0,0,1.45,2.82,3.08,3.08,0,0,0,1.19,1.07,9.07,9.07,0,0,0,2.15.78,6.53,6.53,0,0,0,2.64.06,4.81,4.81,0,0,0,2.15-1,.87.87,0,0,0,.36-.59,5.34,5.34,0,0,0,.07-1.26c-.06-.7-.13-1.4-.24-2.09a46.09,46.09,0,0,1-.54-5.51,48.32,48.32,0,0,0-.55-5.5,2.79,2.79,0,0,1,.49-2,1.64,1.64,0,0,0,.3-1,1.83,1.83,0,0,1,1.31-1.86,2.06,2.06,0,0,0,1.21-1A13.89,13.89,0,0,1,354.6,59a6.74,6.74,0,0,0,1.07-1.73c.19-.44.39-.85.61-1.26s.39-.76.6-1.14a13.68,13.68,0,0,1,2-2.87,11,11,0,0,0,2.1-3.29A5.83,5.83,0,0,1,362.07,47a1.4,1.4,0,0,0,.34-.93,1.5,1.5,0,0,1,.12-.72,6.8,6.8,0,0,1,.39-.76,14.8,14.8,0,0,0,1.58-3.34C364.78,40.44,365.08,39.61,365.39,38.8Z"/><path class="cls-3" d="M309.44,72.52a2.67,2.67,0,0,0-.24-1.11,7.17,7.17,0,0,1-.62-3c0-2.36,0-4.71,0-7.07a43,43,0,0,0-.3-4.81,110.39,110.39,0,0,1-.79-11.34,29.3,29.3,0,0,0-.69-6.05,45.65,45.65,0,0,1-1-7.9.49.49,0,0,0-.2-.39.29.29,0,0,1-.09-.34.86.86,0,0,0,0-.67,1.74,1.74,0,0,0-.32-.56.38.38,0,0,1-.07-.21,2.43,2.43,0,0,0-.08-.53,3.48,3.48,0,0,0-.52-1.2,41,41,0,0,0-3-4.08,7.56,7.56,0,0,0-2.77-2.08,13.5,13.5,0,0,0-3.21-1,30.71,30.71,0,0,0-4.29-.43,29.25,29.25,0,0,0-4.95.29,27.75,27.75,0,0,0-4.51,1,21.85,21.85,0,0,0-6.18,3,27.84,27.84,0,0,0-8.52,9.56.4.4,0,0,0,0,.32.56.56,0,0,0,.32.34.8.8,0,0,0,.76-.12c.59-.45,1.16-.92,1.73-1.41a33.1,33.1,0,0,1,6.39-4.33c1.53-.79,3.08-1.57,4.65-2.32a3.75,3.75,0,0,1,1.59-.37,4.88,4.88,0,0,0,1.46-.22c1.31-.42,2.65-.78,4-1.09a22.49,22.49,0,0,1,5.79-.55,6.16,6.16,0,0,1,3.36,1.14,10.26,10.26,0,0,1,2.28,2.18,15.54,15.54,0,0,1,2,3.55,6.3,6.3,0,0,1,.46,2.06c.05,1.05.07,2.11.09,3.18a2.35,2.35,0,0,0,.32,1.18,1.84,1.84,0,0,1,.23.73,7.24,7.24,0,0,1-.14,2.18,1.2,1.2,0,0,0,.27,1,1,1,0,0,1,.23.69,25.25,25.25,0,0,0,.16,5.76c0,.17.05.36.07.53a12.69,12.69,0,0,1,0,3.08,1.2,1.2,0,0,0,.19.83.54.54,0,0,1,.12.39c0,.23,0,.46,0,.7a2.67,2.67,0,0,1,0,.4,43.62,43.62,0,0,0,.14,8,7.32,7.32,0,0,1,0,1.75,17.19,17.19,0,0,0,.68,7,3.09,3.09,0,0,1,.12,1.13,28.5,28.5,0,0,0,.06,3.92,58.58,58.58,0,0,1,.22,7.26,3.68,3.68,0,0,1-.49,1.75,1.17,1.17,0,0,1-1,.59,30,30,0,0,1-3.14-.12,12.09,12.09,0,0,1-4.92-1.53,24.84,24.84,0,0,0-3.81-1.76A17,17,0,0,1,286.68,79a2.51,2.51,0,0,1-.24-.19,10.13,10.13,0,0,0-1.1-.79l-2-1.31a.29.29,0,0,1-.13-.23.17.17,0,0,1,0-.07.21.21,0,0,1,.19-.17,4.39,4.39,0,0,1,.89,0,13,13,0,0,0,3.47-.06l.68-.12a8.48,8.48,0,0,1,.88-.13,1,1,0,0,0,.79-.45,1.47,1.47,0,0,0,.2-.6c0-.42.05-.84.09-1.26a.87.87,0,0,0-.25-.69,9,9,0,0,1-.62-.74,2.14,2.14,0,0,0-.76-.64,9.42,9.42,0,0,1-1.59-1,2.81,2.81,0,0,0-1.14-.48,25.16,25.16,0,0,1-3.21-.7,3.57,3.57,0,0,0-1.69,0,.45.45,0,0,1-.44-.13,1,1,0,0,1-.24-.45,1.47,1.47,0,0,1,.06-.72,2.28,2.28,0,0,1,.13-.28,2.06,2.06,0,0,1,.78-.77.73.73,0,0,0,.3-.37.65.65,0,0,1,.24-.34,2.87,2.87,0,0,0,.81-1,.24.24,0,0,1,.17-.13,1.11,1.11,0,0,0,.55-.22,2.62,2.62,0,0,0,.44-.44.86.86,0,0,0,.15-.45.49.49,0,0,1,.24-.43,2.93,2.93,0,0,0,.76-.73,11.26,11.26,0,0,1,1-1.2,2.92,2.92,0,0,1,.87-.65,1.18,1.18,0,0,0,.46-.37.45.45,0,0,0,.09-.3A13.43,13.43,0,0,1,287.4,59a2.68,2.68,0,0,0-.67-1.76,5.26,5.26,0,0,0-1.8-1.37,13.94,13.94,0,0,0-1.77-.66,3.73,3.73,0,0,0-1.45-.13.53.53,0,0,1-.49-.22.77.77,0,0,1-.13-.57.9.9,0,0,1,.31-.53.83.83,0,0,0,.31-.71,1,1,0,0,1,.31-.79.21.21,0,0,0,0-.29.23.23,0,0,0-.1-.07h-.06a.36.36,0,0,1-.16-.47,1.06,1.06,0,0,0,.08-.66,2.65,2.65,0,0,1,.1-1.28,1.13,1.13,0,0,0-.18-1,1.91,1.91,0,0,1-.35-.75.58.58,0,0,0-.36-.4,2.91,2.91,0,0,0-.66-.17.64.64,0,0,1-.52-.62.81.81,0,0,0-.18-.48,3.28,3.28,0,0,1-.31-.45.92.92,0,0,0-.84-.44.83.83,0,0,1-.62-.22,1.92,1.92,0,0,0-1.59-.48,1.33,1.33,0,0,1-.87-.18,2.07,2.07,0,0,0-1.37-.27,1.16,1.16,0,0,0-.57.27.61.61,0,0,1-.53.13,2.16,2.16,0,0,0-1.33.14,10.35,10.35,0,0,1-1.15.39,3.71,3.71,0,0,0-.88.36,1.79,1.79,0,0,1-.88.21.5.5,0,0,0-.39.18,1,1,0,0,1-1.11.26,1.1,1.1,0,0,0-1.1.18,2.09,2.09,0,0,1-.88.44.52.52,0,0,0-.39.61.19.19,0,0,0,0,.09c.08.21.17.41.26.62a1.42,1.42,0,0,0,.31.48.94.94,0,0,1,.13,1.07.57.57,0,0,0,.13.7c.12.1.24.2.35.31a.61.61,0,0,1,.14.74.33.33,0,0,0,.05.4,1,1,0,0,1,.21.84.56.56,0,0,0,.43.65H267a.94.94,0,0,1,.74.41,2.42,2.42,0,0,0,.84.75.55.55,0,0,1,.29.64,14.69,14.69,0,0,0-.4,2.87.54.54,0,0,1-.33.47,2,2,0,0,1-1.22.08.33.33,0,0,0-.39.22.77.77,0,0,1-.35.44.51.51,0,0,0-.22.61.63.63,0,0,1-.13.65,4.76,4.76,0,0,0-.74,1.09c-.16.32-.33.64-.52,1a1.71,1.71,0,0,0-.22,1.13,18.29,18.29,0,0,1,.22,1.83,3.7,3.7,0,0,0,.39,1.38,1.52,1.52,0,0,0,.57.61,2.24,2.24,0,0,1,.73.74,1,1,0,0,0,1.39.35,1.44,1.44,0,0,1,.84-.16,1.05,1.05,0,0,1,.41.14.17.17,0,0,1,.08.13.2.2,0,0,1-.15.23.38.38,0,0,0-.29.26l-.12.4a1.3,1.3,0,0,0,0,.91.31.31,0,0,1-.09.38A1.13,1.13,0,0,0,268,71a.42.42,0,0,0,.2.55.49.49,0,0,1,.25.4,4.83,4.83,0,0,0,.25,1.3,4,4,0,0,0,.95,1.57,2.82,2.82,0,0,0,1.86.84l.94.05a7.11,7.11,0,0,0,1.72-.11.29.29,0,0,1,.28.14.37.37,0,0,0,.33.2,2.32,2.32,0,0,1,.53,0,.54.54,0,0,0,.48-.11.79.79,0,0,1,.55-.18,11.15,11.15,0,0,0,2-.07,1.77,1.77,0,0,1,1.35.4,1.2,1.2,0,0,0,.95.26,4.47,4.47,0,0,1,1.46,0,.65.65,0,0,1,.43.26s0,0,.05.08a.25.25,0,0,1-.05.26.39.39,0,0,0,0,.39,7.37,7.37,0,0,0,.48.87l0,.11a.6.6,0,0,1-.36.78,2.29,2.29,0,0,1-1.16.13,2.15,2.15,0,0,0-1.46.35,4.7,4.7,0,0,1-2.77.82,35,35,0,0,0-4,.17,11.38,11.38,0,0,0-1.3.22,2.33,2.33,0,0,1-1.33-.09,3.78,3.78,0,0,1-.82-.43,2.15,2.15,0,0,0-1.6-.35,10.31,10.31,0,0,1-1.47.15,1.12,1.12,0,0,0-1.09,1.09,4.55,4.55,0,0,0,.39,2q.26.58.54,1.17a7.37,7.37,0,0,0,1.86,2.33,2.9,2.9,0,0,0,1.48.61,41.16,41.16,0,0,0,11.73-.31,14.83,14.83,0,0,1,4.51-.07,12.13,12.13,0,0,0,3,0,2,2,0,0,0,1-.47.82.82,0,0,1,.86-.15,6.39,6.39,0,0,1,1.71,1,12.05,12.05,0,0,0,4.11,2.25c1.56.49,3.08,1,4.59,1.64a7.91,7.91,0,0,0,5,.3,4.25,4.25,0,0,0,2.8-2.33,7.61,7.61,0,0,0,.7-3.88Q309.4,78.85,309.44,72.52Z"/><path class="cls-3" d="M288.64,63.11a.84.84,0,0,0,1.06.57.8.8,0,0,0,.32-.19c.19-.16.37-.34.55-.52a6.1,6.1,0,0,1,1.22-.92.34.34,0,0,1,.43.08.65.65,0,0,0,.71.22.83.83,0,0,1,1,.46,2.64,2.64,0,0,0,1.22,1.27,1.21,1.21,0,0,0,1.22-.07.81.81,0,0,0,.36-.74,3.67,3.67,0,0,1,.1-1.19.68.68,0,0,1,.66-.49.54.54,0,0,0,.57-.54v-.81a1.58,1.58,0,0,0-.65-1.25,11.11,11.11,0,0,1-1.85-1.71,7.74,7.74,0,0,0-2.21-1.77,6.69,6.69,0,0,0-2.37-.74,11.21,11.21,0,0,0-1.29-.05A1,1,0,0,0,289,55a1,1,0,0,0-.29.79c.07.8.16,1.6.28,2.38l.12,1.25a4.91,4.91,0,0,1-.36,2.14A2.27,2.27,0,0,0,288.64,63.11Z"/><path class="cls-3" d="M264.66,43c.22,0,.42-.07.63-.09a1.05,1.05,0,0,0,.34-.08.6.6,0,0,0,.37-.63,8.11,8.11,0,0,1-.06-1.21c0-.41,0-.81.08-1.22a2.19,2.19,0,0,0-.66-1.86A3.37,3.37,0,0,0,263,37a4.8,4.8,0,0,0-3,1.12,19.1,19.1,0,0,0-4.26,5.09,59,59,0,0,0-3.08,6.16,22.57,22.57,0,0,0-1.3,4.06,55.67,55.67,0,0,1-2.27,7.93,24.94,24.94,0,0,0-1.39,5.85,43.65,43.65,0,0,0-.21,7.92,56.8,56.8,0,0,1,0,6.78,3.51,3.51,0,0,0,.17,1.28,7.29,7.29,0,0,1,.37,2.27,3.6,3.6,0,0,0,1.31,2.78,2.82,2.82,0,0,1,1,1.79.67.67,0,0,0,.77.58.55.55,0,0,0,.29-.11c.18-.12.37-.23.55-.33a.41.41,0,0,1,.49.08.44.44,0,0,0,.63,0,.58.58,0,0,0,.1-.12.3.3,0,0,1,.11-.14.49.49,0,0,1,.7.06,1.4,1.4,0,0,0,1.06.47,1.45,1.45,0,0,0,1.19-.67.81.81,0,0,1,1-.34,1,1,0,0,0,1.34-.61,1,1,0,0,0,0-.51,1.58,1.58,0,0,0-.17-.56,6.79,6.79,0,0,0-1.11-1.66A8.22,8.22,0,0,1,255.23,82a7.66,7.66,0,0,1,.39-4,4.42,4.42,0,0,0-.05-3.26,1,1,0,0,0-.3-.39.44.44,0,0,0-.58,0A2.25,2.25,0,0,0,254,75.8c0,.61-.11,1.23-.19,1.84a.71.71,0,0,1-.28.5.19.19,0,0,1-.23,0,.9.9,0,0,1-.51-.83,8.13,8.13,0,0,0-.11-1.56,15,15,0,0,1-.05-4.39q.84-6.47,2.1-12.86a80.77,80.77,0,0,1,2.51-9.67A10,10,0,0,1,260,44.63a4.45,4.45,0,0,0,.95-1.25,1.58,1.58,0,0,1,1.28-.86.63.63,0,0,1,.24,0,.93.93,0,0,1,.77,1.08.27.27,0,0,0,.06.12.41.41,0,0,0,.43.16.71.71,0,0,0,.59-.53A.44.44,0,0,1,264.66,43Z"/><path class="cls-3" d="M406.8,43.89a15.18,15.18,0,0,1-1-2.93c0-.2-.09-.39-.15-.6-.26-1-.55-2.09-.89-3.11q-.8-2.49-1.5-5A3.09,3.09,0,0,0,402,30.51a.67.67,0,0,0-.58-.08.65.65,0,0,0-.45.4,6.43,6.43,0,0,0-.44,1.79,49,49,0,0,0,.06,10.06,18.63,18.63,0,0,1-.07,4.66,4.08,4.08,0,0,1-1.35,2.53c-.92.83-1.8,1.7-2.63,2.61a5.3,5.3,0,0,1-2,1.35A4.05,4.05,0,0,0,393,55a.35.35,0,0,1-.62-.23V53.44c0-1.36.06-2.73.12-4.09.13-2.53.37-5.06.69-7.57a22.92,22.92,0,0,0,0-6.08c-.07-.62-.19-1.25-.32-1.87a23.32,23.32,0,0,0-2.75-7.08c-.66-1.13-1.33-2.25-2-3.37a4,4,0,0,0-1.16-1.22,14.12,14.12,0,0,1-2-1.65,1,1,0,0,0-1.07-.24,5.62,5.62,0,0,1-1,.24,1.3,1.3,0,0,0-.7.3,1.4,1.4,0,0,0-.46,1.33.93.93,0,0,1-.18.76.74.74,0,0,0-.18.51,2.34,2.34,0,0,1-.37,1.34,2.85,2.85,0,0,0-.43,1.75,41.29,41.29,0,0,1,0,5.78,6.5,6.5,0,0,0,0,1.08.17.17,0,0,1,0,.07.52.52,0,0,1-.51.53,1,1,0,0,1-.86-.49,8.55,8.55,0,0,0-4.53-3.73A12.83,12.83,0,0,1,372,28.35a9.1,9.1,0,0,0-1.64-.85,3.4,3.4,0,0,0-2.62.07,2.08,2.08,0,0,0-1,.52,2.19,2.19,0,0,0-.49.67,1.06,1.06,0,0,0,0,.8,11.22,11.22,0,0,1,.33,1.17c.17.88.33,1.76.47,2.63a15.88,15.88,0,0,0,.85,3.18,4.35,4.35,0,0,0,2.11,2.3.88.88,0,0,1,.46.52c0,.15.1.3.14.45a.24.24,0,0,1,0,.12.2.2,0,0,1-.25.14L370,40a9.75,9.75,0,0,1-1.15-.5,1.13,1.13,0,0,0-1,0,2.16,2.16,0,0,0-1.21,1.65q-.21,1.52-.3,3a37.22,37.22,0,0,0,0,3.81,4,4,0,0,0,.52,1.81,2.13,2.13,0,0,1,.15,1.73c-.36,1.07-.72,2.14-1.1,3.2-.61,1.74-1.23,3.47-1.88,5.2a10,10,0,0,0-.59,4.3A13.6,13.6,0,0,0,365.23,70a8.32,8.32,0,0,0,3.56,3.24,18.89,18.89,0,0,0,3,1.1,4.09,4.09,0,0,0,3.54-.73,4.42,4.42,0,0,1,1.54-.79,6.09,6.09,0,0,0,1.88-.88.69.69,0,0,1,.83,0,3,3,0,0,1,.52.54,3,3,0,0,1,.6,1.81,76.26,76.26,0,0,0,.51,8.93c.39,3.51.74,7,1,10.56A66.93,66.93,0,0,0,384.7,107a28.42,28.42,0,0,0,2.08,5.16.9.9,0,0,0,1.21.37.92.92,0,0,0,.37-.36,23.23,23.23,0,0,0,2-4.59,22.68,22.68,0,0,0,1-5.54q.38-7.07.65-14.13a68.18,68.18,0,0,0-.23-8.81,76.1,76.1,0,0,1-.1-12.72,10,10,0,0,1,2-5.25,37.28,37.28,0,0,1,9.69-9,8.61,8.61,0,0,0,3.82-5.76A4.07,4.07,0,0,0,406.8,43.89Zm-26.61,14.9q-.07,1.6-.18,3.21a2,2,0,0,1-.94,1.58,6.92,6.92,0,0,1-2,.86,30.46,30.46,0,0,1-3.27.64A4.63,4.63,0,0,1,372,65a1.27,1.27,0,0,1-.88-.7,2.6,2.6,0,0,1-.1-1.92,5.25,5.25,0,0,0,.13-3c.07-1,.08-2.07.05-3.11a2.92,2.92,0,0,1,.19-1.34,40.75,40.75,0,0,0,1.7-5,3.73,3.73,0,0,0-.11-2.29,13.25,13.25,0,0,1-.59-2.11c-.08-.44-.15-.88-.19-1.33a1.72,1.72,0,0,1,.48-1.33,3.87,3.87,0,0,1,.85-.64,1.07,1.07,0,0,1,1,0,2.69,2.69,0,0,0,1.42.34,10,10,0,0,1,2,.13,2.45,2.45,0,0,0,1.2-.1l.13,0a.51.51,0,0,1,.55.47q.38,4.77.39,9.55Q380.32,55.69,380.19,58.79Z"/><path class="cls-3" d="M485.28,24.9a19.86,19.86,0,0,0-7.42-2.8,20.83,20.83,0,0,0-7.51.18,119.58,119.58,0,0,0-12.49,3.31A45.8,45.8,0,0,0,447,30.81a31.6,31.6,0,0,1-5.27,2.79,22.37,22.37,0,0,0-8.82,6.5q-2,2.49-4.31,4.75a145.72,145.72,0,0,0-14.16,15.54A31.26,31.26,0,0,0,406,75a.66.66,0,0,0,.3.32.24.24,0,0,0,.29-.06,7.73,7.73,0,0,0,1-1.17c1-1.43,2-2.89,2.91-4.37a70.37,70.37,0,0,1,8.1-10.59c3.54-3.8,6.94-7.74,10.16-11.81A94.78,94.78,0,0,1,436.11,39a23.44,23.44,0,0,1,7.5-5q4.86-2,9.66-4.16a46.09,46.09,0,0,1,9.09-3,19.61,19.61,0,0,1,8.59,0c2.41.56,4.79,1.19,7.16,1.89A16.05,16.05,0,0,1,482,30.51a2.1,2.1,0,0,1,1,1.55,2.8,2.8,0,0,1-.67,2.16A12,12,0,0,1,478,37.38a81.63,81.63,0,0,0-10.43,5.39,39.23,39.23,0,0,1-9.1,4c-1.43.43-2.86.89-4.27,1.38a.91.91,0,0,1-.83-.11,5.23,5.23,0,0,0-2.38-.89,22.05,22.05,0,0,0-7.72.52,94.12,94.12,0,0,0-10,3A17.24,17.24,0,0,0,430.57,52a1,1,0,0,0-.44,1.16A2.19,2.19,0,0,1,430,54.8,3.13,3.13,0,0,0,429.8,57a4.07,4.07,0,0,0,1.38,2.16,1.75,1.75,0,0,0,1.5.33,13,13,0,0,0,3.11-1.22,19.51,19.51,0,0,1,9.14-2.44.72.72,0,0,1,.29.06.61.61,0,0,1,.26.83,6.53,6.53,0,0,0-.66,2.49,12.54,12.54,0,0,1-.33,2.28,1.58,1.58,0,0,1-1.1,1.15l-1.9.58a5.37,5.37,0,0,1-2.49.16,1.64,1.64,0,0,0-1.88,1.33v.06a2.6,2.6,0,0,1-.56,1.28,3.94,3.94,0,0,0-.77,3.43q.54,2.31,1,4.62a10.42,10.42,0,0,1,.22,2.16,6.18,6.18,0,0,0,1.28,3.83,9.52,9.52,0,0,0,1.88,1.87A5.45,5.45,0,0,0,444,83a3.85,3.85,0,0,0,3-1.82,10.4,10.4,0,0,1,1.55-1.94,16.61,16.61,0,0,1,2.5-2,2.59,2.59,0,0,1,1-.38h.11a.48.48,0,0,1,.44.51,3.59,3.59,0,0,0,.34,1.71,3.63,3.63,0,0,1,.33,1.78c-.07.85-.14,1.7-.22,2.54a3,3,0,0,1-1.22,2.11c-1,.69-1.95,1.38-2.94,2a6.34,6.34,0,0,1-4.27,1.06,13.55,13.55,0,0,1-4.49-1.34,24.21,24.21,0,0,0-5.21-1.88,2.75,2.75,0,0,1-1.55-1,.13.13,0,0,0-.17,0,.08.08,0,0,0,0,0,.64.64,0,0,0,.1.76,9.15,9.15,0,0,0,1.93,1.57c.39.24.77.49,1.15.76a.21.21,0,0,1,.1.13.28.28,0,0,1-.15.38l-.31.16a1.07,1.07,0,0,1-.58.15.94.94,0,0,1-.29.06l0,.57-.39-.07a6.52,6.52,0,0,0,2.5,1.34,36,36,0,0,1,4.11,1.48A16.27,16.27,0,0,0,446,93a54.11,54.11,0,0,0,7.31.3,4.43,4.43,0,0,0,2.66-1,6,6,0,0,0,1.76-2.4,10.52,10.52,0,0,1,1-1.92,4.22,4.22,0,0,0,.64-1.66c.05-.32.08-.62.1-.94.08-1.49.22-3,.44-4.46a3.73,3.73,0,0,0-.2-1.87,1.8,1.8,0,0,1-.1-.73,2.55,2.55,0,0,0-.68-2,.25.25,0,0,1-.06-.13.23.23,0,0,1,.2-.26l.7-.1c.41-.08.84-.14,1.27-.2l.93-.1a2,2,0,0,0,1-.39,1.87,1.87,0,0,1,.79-.34.41.41,0,0,0,.34-.44c0-.33,0-.66,0-1h0a.94.94,0,0,1,.92-1,.41.41,0,0,0,.39-.4.19.19,0,0,0,0-.08,6.71,6.71,0,0,1-.12-2.32,2.61,2.61,0,0,1,.62-1.37.6.6,0,0,0-.05-.83.85.85,0,0,0-.14-.09,2.37,2.37,0,0,1-1-.86,2.93,2.93,0,0,0-.39-.48,4.7,4.7,0,0,0-.79-.6,1.16,1.16,0,0,1-.56-1.1,1.07,1.07,0,0,0-.24-.75,3.79,3.79,0,0,1-.46-.67.92.92,0,0,1-.08-.27,1.36,1.36,0,0,0-.24-.67A.65.65,0,0,1,462,61a3.28,3.28,0,0,1,.38-.27.27.27,0,0,0,.08-.38A.88.88,0,0,0,462,60c-.3-.08-.61-.16-.91-.21l-.86-.19a1.54,1.54,0,0,0-1.27.24.85.85,0,0,1-1.08-.07,1.64,1.64,0,0,0-1-.44,5.38,5.38,0,0,0-2.71.44,3.22,3.22,0,0,1-2.1.17.37.37,0,0,1-.26-.44,10,10,0,0,1,.79-2.09c.73-1.4,1.4-2.84,2-4.29a3.93,3.93,0,0,1,1.3-1.66,6.69,6.69,0,0,1,2.45-1.13,36.83,36.83,0,0,0,6.37-2.18c1.32-.6,2.62-1.21,3.93-1.84q4.6-2.22,9.25-4.36a17.28,17.28,0,0,0,3.32-2,47,47,0,0,0,5.59-5.06,6.18,6.18,0,0,0,1.48-5.76A7,7,0,0,0,485.28,24.9Z"/><path class="cls-3" d="M421.28,38.14a5.11,5.11,0,0,1,.39,2.24,2.5,2.5,0,0,0,.89,2,4.24,4.24,0,0,0,2.59,1,20.2,20.2,0,0,0,3-.11q.73-.07,1.47-.12a.56.56,0,0,0,.54-.5,1.33,1.33,0,0,1,.37-.78.74.74,0,0,0,.11-.85c-.11-.19-.23-.38-.33-.57-.56-1.15-1.11-2.3-1.62-3.48a1.85,1.85,0,0,0-1.46-1.08,5.42,5.42,0,0,1-1.55-.38,3.35,3.35,0,0,0-2.05-.12,1.77,1.77,0,0,0-1.16,1,1,1,0,0,1-.65.57.84.84,0,0,0-.58,1Z"/><path class="cls-3" d="M435.22,34.31a21.87,21.87,0,0,0,2.56,0,6.71,6.71,0,0,0,4.42-1.89,11.37,11.37,0,0,1,3.52-2.33,16.11,16.11,0,0,0,4-2.47,25.86,25.86,0,0,1,4.41-3A84.73,84.73,0,0,0,464.62,18l.49-.36A20.54,20.54,0,0,1,471,14.6l2-.66a8.85,8.85,0,0,0,2-.92,18.39,18.39,0,0,1,2-1.11.86.86,0,0,0,.39-1.15,1.4,1.4,0,0,0-.1-.16,2.66,2.66,0,0,0-1.71-1,10.13,10.13,0,0,0-5.48.82,99,99,0,0,0-16.12,9.31c-.92.64-1.82,1.31-2.71,2A8.87,8.87,0,0,0,449,24.15a5.25,5.25,0,0,1-2.65,2.2c-1.72.65-3.42,1.37-5.08,2.15a27.41,27.41,0,0,1-5.57,1.93A3.26,3.26,0,0,0,433.56,32a1.13,1.13,0,0,0,0,1.1A2.46,2.46,0,0,0,435.22,34.31Zm15.66-9.71a32.52,32.52,0,0,1,8.49-6,34.77,34.77,0,0,1,3.51-1.48,3.47,3.47,0,0,0,.8-.38.23.23,0,0,1,.32,0,.27.27,0,0,1,.06.1.24.24,0,0,1-.11.27s0,0-.07,0a3.05,3.05,0,0,0-1.17.61,18.84,18.84,0,0,1-2.77,1.81c-1.23.67-2.46,1.33-3.68,2a27.23,27.23,0,0,0-2.6,1.66,23.91,23.91,0,0,1-2,1.3,3.69,3.69,0,0,1-.67.3.14.14,0,0,1-.15,0,.08.08,0,0,1,0-.07A.15.15,0,0,1,450.88,24.6Z"/><path class="cls-3" d="M585.51,86.83a2.83,2.83,0,0,0-.59-1.32,7.62,7.62,0,0,1-.48-.64q-1.79-2.57-3.72-5c-1.06-1.35-2.18-2.67-3.34-3.94q-3.36-3.7-6.45-7.63a11.19,11.19,0,0,0-4-3.16,2,2,0,0,0-1.61-.06,1,1,0,0,0-.55.56.73.73,0,0,0,.28.89,6,6,0,0,1,2.06,2.33,42.68,42.68,0,0,0,3.56,6c1.8,2.56,3.64,5.11,5.51,7.62a11.37,11.37,0,0,1,1.6,3.07c.3.92.63,1.82,1,2.72a.65.65,0,0,1-.16.73,6.76,6.76,0,0,1-2.56,1.44c-1.81.55-3.65,1-5.5,1.39a27,27,0,0,1-5.73.56q-3.68,0-7.35.11a15.94,15.94,0,0,1-3.45-.23,2.29,2.29,0,0,1-1.9-2,9.67,9.67,0,0,1,.12-2.94,13.66,13.66,0,0,1,.83-2.73,10.53,10.53,0,0,0,.84-4.67,13,13,0,0,1,.22-3.17c.18-.95.33-1.92.44-2.89a5.52,5.52,0,0,1,.57-1.85,15.93,15.93,0,0,1,1.64-2.59,35.49,35.49,0,0,1,2.35-2.72,1.43,1.43,0,0,0,.31-1.49,5.49,5.49,0,0,1-.31-1.19,9.43,9.43,0,0,1,0-2.49.84.84,0,0,0-.22-.68,1.73,1.73,0,0,1-.43-1,6.57,6.57,0,0,1,0-1,1.49,1.49,0,0,0-.38-1.14A9.27,9.27,0,0,1,556.86,56,27,27,0,0,0,554,52c-.46-.54-.95-1.07-1.45-1.57a26.81,26.81,0,0,0-8.66-5.75,1.42,1.42,0,0,0-1.55-.73,6.79,6.79,0,0,0-1.56.57,1.38,1.38,0,0,0-.6.62,1.41,1.41,0,0,0-.12.51c0,.49,0,1,0,1.49a3.84,3.84,0,0,1-.31,1.5,4.47,4.47,0,0,0-.34,1.13,6.78,6.78,0,0,0,.37,3.78,1,1,0,0,1-.22,1.07,10.19,10.19,0,0,1-2.44,1.78,5.27,5.27,0,0,0-2.34,2.42,14.93,14.93,0,0,1-2.1,3.23,28.32,28.32,0,0,0-2.79,3.91,2.82,2.82,0,0,0-.33,1.82,31.93,31.93,0,0,0,.68,3.23q.49,1.89,1.08,3.75a4.63,4.63,0,0,0,2.67,2.9A13.88,13.88,0,0,1,536.53,79a11,11,0,0,0,2.5,1.24.42.42,0,0,1,.27.51c-.15.74-.33,1.48-.5,2.21A5.45,5.45,0,0,1,537,85.88a1.89,1.89,0,0,0-.62,1.87,5.15,5.15,0,0,0,.57,1.42,1.88,1.88,0,0,0,2.15.85c.77-.23,1.53-.49,2.27-.79a3.25,3.25,0,0,0,2-3,9.68,9.68,0,0,1,1-4.16,5.51,5.51,0,0,1,3.48-2.92,1.85,1.85,0,0,0,1.1-.87.3.3,0,0,0,0-.08.43.43,0,0,1,.58,0,1,1,0,0,1,.34.79c0,.79-.09,1.58-.18,2.37-.14,1.57-.27,3.15-.38,4.73a12.44,12.44,0,0,1-1.46,5,2.81,2.81,0,0,0-.12,2.42A6.56,6.56,0,0,0,549.66,96a8.7,8.7,0,0,0,4.4,1.86,23.54,23.54,0,0,0,5.24.06,18.12,18.12,0,0,1,2.08-.11c1.89,0,3.76-.11,5.64-.29q4.18-.39,8.34-1.13a20.06,20.06,0,0,0,7.95-3.27,7.69,7.69,0,0,0,3-4.24,1.14,1.14,0,0,0-.37-1.2A1.33,1.33,0,0,1,585.51,86.83ZM542.79,62.09a1,1,0,0,1-1.07.77,3,3,0,0,0-1.34.24,2.19,2.19,0,0,1-1,.21.9.9,0,0,0-.79.42,2,2,0,0,1-1.47.07l-.24-.11a1.12,1.12,0,0,1-.31-1.54,5.54,5.54,0,0,0,.77-1.8,6,6,0,0,1,1-2.13,6.32,6.32,0,0,1,1-1.14,1.27,1.27,0,0,1,1.45-.14,1,1,0,0,1,.49,1,1.19,1.19,0,0,0,.58,1.17,2,2,0,0,1,.81.93A3.34,3.34,0,0,1,542.79,62.09Z"/><path class="cls-3" d="M682.32,89.91a4.35,4.35,0,0,0-2-.77,32.62,32.62,0,0,1-3.91-.79,19.14,19.14,0,0,0-5.06-.65,7.46,7.46,0,0,1-3.52-.84,17.92,17.92,0,0,0-4.55-1.63,1.17,1.17,0,0,0-1.23.52,2.06,2.06,0,0,1-1.37.91,4.08,4.08,0,0,1-3-.67,15.58,15.58,0,0,1-2.93-2.63,4.05,4.05,0,0,1-.88-1.71,4.32,4.32,0,0,0-1.46-2.28,11.92,11.92,0,0,1-1.94-2q-.37-.51-.75-1a.57.57,0,0,0-.41-.21,1.4,1.4,0,0,1-.93-.39,11.87,11.87,0,0,1-1.62-2,21.62,21.62,0,0,0-2.59-3.22c-.43-.44-.84-.89-1.24-1.35-.91-1-1.89-2-2.9-3a4.75,4.75,0,0,1-1.35-2.2q-.26-.91-.6-1.8a3.54,3.54,0,0,0-1.38-1.7c-.66-.42-1.29-.87-1.91-1.34a8.49,8.49,0,0,1-2-2.16,1.54,1.54,0,0,1-.25-.79,1,1,0,0,1,.39-.84,11.81,11.81,0,0,1,2.23-1.41,32.3,32.3,0,0,0,5.84-3.76,12.9,12.9,0,0,1,1.13-.81,12.35,12.35,0,0,0,4-4.08,2.83,2.83,0,0,0,.36-1.83,2.58,2.58,0,0,1,.08-1.07,3.66,3.66,0,0,0,.08-1.8,6.21,6.21,0,0,0-.2-.74,6,6,0,0,1-.27-1.45.71.71,0,0,0-.29-.52.57.57,0,0,1-.21-.3l-.37-1a2.41,2.41,0,0,0-.83-1.06,3.06,3.06,0,0,0-.72-.37.78.78,0,0,0-.87.28,7.16,7.16,0,0,0-.56.87.65.65,0,0,0,.09.76.4.4,0,0,1,.07.45,1.19,1.19,0,0,0-.16.48,2,2,0,0,1-.21.67l-.09.08a.2.2,0,0,1-.28-.08,1.58,1.58,0,0,0-.65-.63.57.57,0,0,1-.31-.5.36.36,0,0,0-.25-.33,1.89,1.89,0,0,0-.62-.08.55.55,0,0,1-.41-.17.41.41,0,0,1-.07-.11.3.3,0,0,1,.18-.36.3.3,0,0,0,.19-.38.34.34,0,0,0-.23-.26.29.29,0,0,1-.09-.1.18.18,0,0,1,.09-.24.85.85,0,0,1,.47-.05l0,0a.18.18,0,0,1,.1.26.25.25,0,0,0,.13.33.19.19,0,0,0,.22,0,1,1,0,0,1,.44-.14,1.15,1.15,0,0,0,.69-.3.34.34,0,0,0,0-.48l0,0-.07-.1a.25.25,0,0,1,.15-.31,1.08,1.08,0,0,1,.75,0,.33.33,0,0,0,.42-.19v0a.53.53,0,0,0-.13-.55,8.77,8.77,0,0,1-.89-1,6,6,0,0,0-1.71-1.61c-.5-.31-1-.6-1.51-.89a.91.91,0,0,0-1.05.14,6.58,6.58,0,0,1-1.06.83,5.25,5.25,0,0,0-.49.33,1.33,1.33,0,0,0-.54.94,1.57,1.57,0,0,1-.23.7,2,2,0,0,1-.75.73,1.72,1.72,0,0,1-1.11.2,1.65,1.65,0,0,0-1.18.22,1,1,0,0,0-.5.94,1.22,1.22,0,0,1-.58,1.12,1.76,1.76,0,0,0-.56.56,2.2,2.2,0,0,0-.33,1,3,3,0,0,1-.15.78.14.14,0,0,0,.09.19.12.12,0,0,0,.1,0,1.69,1.69,0,0,0,.41-.29.56.56,0,0,1,.53-.16.43.43,0,0,0,.16,0h0a.13.13,0,0,1,.13.13,3.18,3.18,0,0,1,0,.62.66.66,0,0,1-.64.57.56.56,0,0,0-.46.28,6.93,6.93,0,0,0-.28.64,3.25,3.25,0,0,1-.67,1.19,12.32,12.32,0,0,0-.84,1.1l0,0a.27.27,0,0,1-.38,0,1.43,1.43,0,0,1-.42-1,10.15,10.15,0,0,0-.46-2.62c-.22-.72-.45-1.45-.69-2.17-.57-1.7-1.11-3.42-1.61-5.14a21.4,21.4,0,0,0-3.25-6.73c-.69-.94-1.36-1.89-2-2.84a6.09,6.09,0,0,0-1.28-1.35,3.59,3.59,0,0,1-.62-.61.49.49,0,0,0-.69-.09,0,0,0,0,1,0,0c-.14.13-.3.26-.45.38a20.67,20.67,0,0,1-1.89,1.46,1.5,1.5,0,0,0-.62,1.32,9.24,9.24,0,0,0,.37,2c.24.77.45,1.53.63,2.32.43,1.84.86,3.68,1.26,5.52a25.88,25.88,0,0,1,.57,7c-.1,1.53-.18,3.06-.25,4.58a3.43,3.43,0,0,1-1.33,2.52,16.45,16.45,0,0,1-6.65,3.07,1.6,1.6,0,0,1-.69,0,4.41,4.41,0,0,0-2,.11,2.24,2.24,0,0,0-1.26.94,3.23,3.23,0,0,0-.5,2,14.78,14.78,0,0,0,1,4.17,7.62,7.62,0,0,0,2.88,3.52,4.89,4.89,0,0,1,1.83,2.26,2.45,2.45,0,0,1,0,1.86,6.25,6.25,0,0,1-1.24,1.89c-1.44,1.49-2.93,2.9-4.5,4.24a10.76,10.76,0,0,1-4.83,2.35,35.14,35.14,0,0,1-3.52.52,4.57,4.57,0,0,0-2.28.85A7.72,7.72,0,0,1,589.82,77a2,2,0,0,0-1.9,2,1.61,1.61,0,0,0,.72,1.32l2.22,1.43a7.21,7.21,0,0,1,2.28,2.35,1,1,0,0,0,1.18.38l.11,0a.37.37,0,0,1,.4.35,1.17,1.17,0,0,0,.72,1,19.81,19.81,0,0,0,3.33,1,13.63,13.63,0,0,0,7.32-.59A22.87,22.87,0,0,0,613.3,82a41.63,41.63,0,0,0,5.1-5.35,37.37,37.37,0,0,0,2.41-3.45.86.86,0,0,1,.84-.4,2.16,2.16,0,0,1,.59.2c1.24.65,2.46,1.36,3.65,2.09,2.07,1.26,4.06,2.61,6,4a12.73,12.73,0,0,1,3.85,4.55,71.58,71.58,0,0,1,2.88,6.6,11.24,11.24,0,0,0,2.71,4.15,14.89,14.89,0,0,0,3.58,2.53,8.78,8.78,0,0,0,4.62.91q2.36-.18,4.68-.51a25.36,25.36,0,0,1,6.57-.13,7.71,7.71,0,0,0,3.71-.53,59.56,59.56,0,0,1,10-3q3.67-.8,7.35-1.56A1.74,1.74,0,0,0,683,91a.64.64,0,0,0-.2-.72Z"/><path class="cls-3" d="M687.57,33.6a2.74,2.74,0,0,0,1.49,2.33,8.62,8.62,0,0,0,2.51.83,1.9,1.9,0,0,0,2-.95,8.44,8.44,0,0,0,.7-1.6c.16-.48.3-1,.42-1.43a2.42,2.42,0,0,0-.74-2.47c-.91-.78-1.86-1.54-2.84-2.24a1.32,1.32,0,0,0-.71-.09,2.28,2.28,0,0,1-1-.11.87.87,0,0,0-1.06.41,2.48,2.48,0,0,1-.63.77,1.79,1.79,0,0,1-.44.27.29.29,0,0,0-.17.25,2.63,2.63,0,0,0,.08.92A13.67,13.67,0,0,1,687.57,33.6Z"/><circle class="cls-4" cx="72.12" cy="79.83" r="71.75"/><path class="cls-3" d="M52.48,136.4q0,.09.24.18l1.07.35c.14,0,.21,0,.22,0a3.13,3.13,0,0,0,0-.65l0-2.1-1.39,1.9A1.1,1.1,0,0,0,52.48,136.4Z"/><path class="cls-3" d="M90.81,136.48a11.74,11.74,0,0,0-.44-1.22,4.37,4.37,0,0,0-.56-1,2.07,2.07,0,0,0-.73-.61,1.37,1.37,0,0,0-.94,0,1.11,1.11,0,0,0-.69.5,1.73,1.73,0,0,0-.23.85,4.48,4.48,0,0,0,.11,1.11c.08.4.19.82.32,1.25a11.72,11.72,0,0,0,.46,1.31,4.37,4.37,0,0,0,.57,1,1.77,1.77,0,0,0,.7.57,1.23,1.23,0,0,0,.87,0,1.15,1.15,0,0,0,.68-.48,1.81,1.81,0,0,0,.27-.84,4.39,4.39,0,0,0-.08-1.11A12.88,12.88,0,0,0,90.81,136.48Z"/><path class="cls-3" d="M60.33,134.77a2.08,2.08,0,0,0-.3,0,.27.27,0,0,0-.2,0,.4.4,0,0,0-.13.17,2.69,2.69,0,0,0-.09.32l-1.08,5a2.26,2.26,0,0,0-.06.43.5.5,0,0,0,.08.26.41.41,0,0,0,.21.15l.34.09a1.45,1.45,0,0,0,1.47-.49,5.34,5.34,0,0,0,1-2.34,5.5,5.5,0,0,0,.09-2.52A1.56,1.56,0,0,0,60.33,134.77Z"/><path class="cls-3" d="M42.6,131.85c0,.05,0,.13.2.22l1,.54q.2.1.21.06a4.54,4.54,0,0,0,.15-.64l.41-2.05-1.71,1.61A1.25,1.25,0,0,0,42.6,131.85Z"/><path class="cls-3" d="M72.13,11.14a68.69,68.69,0,1,0,68.68,68.68A68.76,68.76,0,0,0,72.13,11.14Zm0,19.57A49.12,49.12,0,1,1,23,79.82,49.18,49.18,0,0,1,72.13,30.71Zm-48,90.08.36-.33c.37.4.72.45,1.06.15l3.83-3.51a.75.75,0,0,0,.27-.9c-.32-.33-.77-.3-1.35.13L23.37,120l-.27-.19L25,113.55l-2.65,2c-.69.51-.84,1-.47,1.52l-.39.29-1.37-1.82.39-.3q.47.61,1.5-.15L26,112c.21-.16.13-.47-.23-1h0a.82.82,0,0,0-1,.08l-4.32,2.73c-.4.25-.45.62-.14,1.11l-.42.26-1.71-2.72.41-.26c.31.48.66.59,1.06.34l4.32-2.73a.78.78,0,0,0,.39-1.07l-.07,0c-.25-.49-.65-.6-1.2-.32l-4.55,2.32c-.42.22-.51.58-.26,1.07l-.43.22-1.47-2.87.43-.23c.28.53.62.69,1.05.48l2.1-1.08a.9.9,0,0,0,0-.27,1.81,1.81,0,0,0-.14-.35l-.5-1a1.22,1.22,0,0,0-.39-.47l-2.11,1.08c-.42.21-.51.57-.26,1.06l-.44.22-1.48-2.89.44-.23c.28.55.63.72,1.06.5l4.55-2.32a.8.8,0,0,0,.44-1.13,10.63,10.63,0,0,1-1.9.9l-.23-.6a4,4,0,0,0,1.37-1.19,1.26,1.26,0,0,0,.11-1.18A1.1,1.1,0,0,0,20,100a1.73,1.73,0,0,0-.81-.19,3.67,3.67,0,0,0-1,.13,11.21,11.21,0,0,0-1.08.34,14.36,14.36,0,0,0-1.35.59,5.06,5.06,0,0,0-1,.67,2.2,2.2,0,0,0-.56.77,1.25,1.25,0,0,0,0,.89,1.46,1.46,0,0,0,.83.87,4,4,0,0,0,1.71.17l0,.44a4.37,4.37,0,0,1-1.08,0,2.77,2.77,0,0,1-.93-.24A2.27,2.27,0,0,1,14,104a2.07,2.07,0,0,1-.46-.72,3,3,0,0,1-.22-1.42,2.55,2.55,0,0,1,.43-1.17,3.65,3.65,0,0,1,1-.93,6.45,6.45,0,0,1,1.39-.7,8.41,8.41,0,0,1,1.61-.46,3.84,3.84,0,0,1,1.39,0,2.47,2.47,0,0,1,1.1.47,2.41,2.41,0,0,1,.73,1,2.43,2.43,0,0,1,.12.43,2.65,2.65,0,0,1,.07.48,3.64,3.64,0,0,1,0,.48,1.29,1.29,0,0,1-.16.44,1.12,1.12,0,0,1,.8.39l-.12.09,1.45,2.84-.46.24c-.25-.49-.65-.6-1.2-.32l-1.71.88a1.27,1.27,0,0,0,.06.28,1.63,1.63,0,0,0,.12.29l.5,1a1.37,1.37,0,0,0,.37.52l1.72-.88A.8.8,0,0,0,22.9,106l.46-.23,1.37,2.68.07,0,1.7,2.71,0,0,.79,1.05-1.71,5.57,2.41-1.8c.63-.47.76-1,.39-1.45l.41-.31,1,1.36,3.53,3.87L31.66,121l-.42-.38a3.65,3.65,0,0,0,.57-.84,1.22,1.22,0,0,0,.12-.61,1,1,0,0,0-.2-.5c-.12-.15-.25-.32-.41-.49a.79.79,0,0,0-.4-.27.35.35,0,0,0-.34.1l-1.52,1.38c-.13.13-.15.24-.06.34a2.56,2.56,0,0,0,.3.28.68.68,0,0,0,.33.13.88.88,0,0,0,.43-.08,2.16,2.16,0,0,0,.57-.36l.36.39-2.3,2.11-.36-.39a3.64,3.64,0,0,0,.41-.5.79.79,0,0,0,.16-.39.57.57,0,0,0-.07-.33,1.83,1.83,0,0,0-.24-.35.3.3,0,0,0-.44,0l-1.61,1.47c-.28.25-.26.55.05.89a2.76,2.76,0,0,0,.68.58,1.29,1.29,0,0,0,.62.17,1.62,1.62,0,0,0,.65-.14c.23-.09.5-.22.8-.37l.29.45-2,1.44Zm6.26,6.4a2,2,0,0,1-.74-.45,2.24,2.24,0,0,1-.41-.52,1.24,1.24,0,0,1-.15-.66,2.45,2.45,0,0,1-.48,0,2.83,2.83,0,0,1-.44-.12,5.64,5.64,0,0,1,.44-.71,6.87,6.87,0,0,1,.55-.66c.14-.15.28-.3.42-.43a4.35,4.35,0,0,1,.44-.41l.43.41a4.81,4.81,0,0,0-.47.62,2.6,2.6,0,0,0-.31.71,1.56,1.56,0,0,0,0,.71,1.09,1.09,0,0,0,.35.61,1.68,1.68,0,0,0,.51.33,1,1,0,0,0,.48.07,1.11,1.11,0,0,0,.43-.15,1.4,1.4,0,0,0,.38-.31,1.22,1.22,0,0,0,.34-.61,1.15,1.15,0,0,0-.09-.69c-.17-.37-.31-.72-.43-1a3.17,3.17,0,0,1-.2-1,2.22,2.22,0,0,1,.14-1,2.81,2.81,0,0,1,.62-1,2.51,2.51,0,0,1,.72-.57,2.24,2.24,0,0,1,.77-.22,1.81,1.81,0,0,1,.73.09,1.74,1.74,0,0,1,.63.39,1.37,1.37,0,0,1,.37.55,1.26,1.26,0,0,1,0,.75,1,1,0,0,1,.48-.09,1.7,1.7,0,0,1,.43.1,6.26,6.26,0,0,1-.73,1c-.31.36-.6.7-.89,1l-.46-.42c.17-.27.32-.52.44-.76a3,3,0,0,0,.26-.67,1.59,1.59,0,0,0,0-.57.75.75,0,0,0-.24-.42,1.15,1.15,0,0,0-.79-.36,1,1,0,0,0-.7.33,1.26,1.26,0,0,0-.28.45,1,1,0,0,0,0,.46,2.54,2.54,0,0,0,.14.54c.08.19.16.41.25.65s.19.54.27.78a2.11,2.11,0,0,1-.11,1.48,3.48,3.48,0,0,1-.59.83A3.21,3.21,0,0,1,32,127a2.14,2.14,0,0,1-.84.28A1.94,1.94,0,0,1,30.34,127.19Zm8.29-.22a3.67,3.67,0,0,0,.42-.92,1.24,1.24,0,0,0,0-.63,1.12,1.12,0,0,0-.29-.46,4.22,4.22,0,0,0-.48-.41.86.86,0,0,0-.44-.2.34.34,0,0,0-.32.15l-1.26,1.62c-.11.15-.12.27,0,.35a1.41,1.41,0,0,0,.34.22.69.69,0,0,0,.35.08,1,1,0,0,0,.41-.15,2.17,2.17,0,0,0,.5-.45l.42.32L36.38,129l-.41-.33a5.26,5.26,0,0,0,.32-.56,1,1,0,0,0,.09-.41.59.59,0,0,0-.12-.31A2.13,2.13,0,0,0,36,127a.3.3,0,0,0-.44.06l-1.34,1.73c-.23.29-.16.58.2.86a2.87,2.87,0,0,0,.77.46,1.3,1.3,0,0,0,.64.07,1.88,1.88,0,0,0,.62-.25c.21-.13.45-.3.73-.5l.35.39-1.69,1.75-4.2-3.26.31-.39c.43.34.79.33,1.06,0l3.19-4.1A.78.78,0,0,0,36,122.6l.31-.41,4.15,3.22-1.35,1.86ZM45,137.1l-2.71-1.49.23-.42.26.09.25.08.2,0s.09,0,.1,0a.32.32,0,0,0,0-.13,1.36,1.36,0,0,1,0-.17l.33-1.44a.27.27,0,0,0-.08-.25.65.65,0,0,0-.24-.19l-1.17-.64a.3.3,0,0,0-.42,0l-.83.9-.09.1-.08.13c-.15.27,0,.53.46.78l-.25.47-1.87-1,.25-.47q.48.21,1-.33l5.08-4.75.67.54-1.42,7a.53.53,0,0,0,0,.25.56.56,0,0,0,.11.2.8.8,0,0,0,.15.17l.16.14Zm3.17,1.33a2,2,0,0,1-.84-.18,3,3,0,0,1-1.17-.83,2.61,2.61,0,0,1-.53-1.13,3.62,3.62,0,0,1,0-1.35,6.76,6.76,0,0,1,.48-1.49A8,8,0,0,1,47,132a4,4,0,0,1,.95-1,2.56,2.56,0,0,1,1.11-.46,2.38,2.38,0,0,1,1.25.21,3.24,3.24,0,0,1,.4.22,3.27,3.27,0,0,1,.39.29,2.17,2.17,0,0,1,.32.36,1.3,1.3,0,0,1,.2.41,1.15,1.15,0,0,1,.84-.3,8.93,8.93,0,0,1-.81,2.68l-.58-.26a4.42,4.42,0,0,0,.11-1.82,1.31,1.31,0,0,0-.77-.9,1.15,1.15,0,0,0-.81-.06,1.74,1.74,0,0,0-.7.45,3.57,3.57,0,0,0-.61.81c-.18.32-.35.66-.51,1a14,14,0,0,0-.52,1.37,4.69,4.69,0,0,0-.23,1.19,2,2,0,0,0,.16.94,1.24,1.24,0,0,0,.65.6,1.48,1.48,0,0,0,1.2,0,3.94,3.94,0,0,0,1.32-1.1l.29.33a4.69,4.69,0,0,1-.74.79,3.18,3.18,0,0,1-.82.49A2.16,2.16,0,0,1,48.19,138.43Zm4.7,1.72.15-.46.27,0,.26,0h.2a.13.13,0,0,0,.09-.06.32.32,0,0,0,0-.14,1,1,0,0,0,0-.18L54,137.9a.27.27,0,0,0-.12-.23.87.87,0,0,0-.27-.14l-1.27-.42a.33.33,0,0,0-.41.11l-.65,1.05-.06.11a.59.59,0,0,0-.06.14c-.1.29.1.52.6.68l-.17.51-2-.67.17-.51c.33.08.66-.09,1-.52l4.12-5.6.76.41L55.42,140a.41.41,0,0,0,0,.23.62.62,0,0,0,.14.19,1.41,1.41,0,0,0,.18.14l.18.1-.15.46Zm8.77,1.26a2.15,2.15,0,0,1-1.11.48,4.09,4.09,0,0,1-1.49-.08l-3.12-.67.1-.48a2.81,2.81,0,0,0,.44.05.37.37,0,0,0,.28-.08.47.47,0,0,0,.18-.26,2.71,2.71,0,0,0,.14-.49l1-4.66a2.67,2.67,0,0,0,.08-.57.49.49,0,0,0-.09-.28.66.66,0,0,0-.25-.15l-.38-.18.1-.5.42.14.4.09.5.1.51.08.62.1.9.18a3.46,3.46,0,0,1,1.19.48,2.23,2.23,0,0,1,.77.87,3.28,3.28,0,0,1,.31,1.31,7.25,7.25,0,0,1-.19,1.8,7.37,7.37,0,0,1-.53,1.66A2.93,2.93,0,0,1,61.66,141.41Zm19.93-5.75-1.22,3.83.27,2.28c0,.27.34.37.93.3l.05.49-3.3.4,0-.49c.6-.07.89-.26.85-.56l-.26-2.2-1.86-3a1.73,1.73,0,0,0-.78-.76h-.07a.71.71,0,0,0-.26.14.47.47,0,0,0-.12.2.78.78,0,0,0,0,.22l.14,5.28c0,.57.28.86.82.85v.49l-2.9,0v-.49c.53,0,.8-.26.8-.78l-.1-4.89-1.78,6.16h-.83l-2-6.11,0,4.69q0,.93.9.93v.49H68.51v-.49a.8.8,0,0,0,.64-.25,1.21,1.21,0,0,0,.22-.78l0-5.11a1.69,1.69,0,0,0,0-.25.27.27,0,0,0-.1-.19A.68.68,0,0,0,69,136l-.32,0-.13,1.69H68a3.64,3.64,0,0,0-.13-1,1.34,1.34,0,0,0-.32-.54,1,1,0,0,0-.48-.24,5,5,0,0,0-.63-.09.78.78,0,0,0-.47,0,.39.39,0,0,0-.2.3l-.22,2q0,.28.18.3a1.81,1.81,0,0,0,.4,0,.7.7,0,0,0,.34-.12.88.88,0,0,0,.27-.34,2.43,2.43,0,0,0,.19-.65l.53.06-.34,3.1-.53-.06a3.27,3.27,0,0,0,0-.65,1,1,0,0,0-.13-.39.6.6,0,0,0-.27-.2,1.86,1.86,0,0,0-.41-.11.31.31,0,0,0-.35.28l-.24,2.18c0,.37.17.58.62.63a2.93,2.93,0,0,0,.9,0,1.31,1.31,0,0,0,.58-.28,1.73,1.73,0,0,0,.4-.54q.16-.33.36-.81l.5.15L68,143.12l-5.29-.58,0-.49c.55.06.85-.13.9-.58l.56-5.16a.77.77,0,0,0-.78-1l.05-.51,5.22.57v.08H71l1.79,5.65,1.68-5.67h1.42l3-.36.06.51c-.43,0-.63.18-.61.39a1.09,1.09,0,0,0,.19.39l1.5,2.38.8-2.64a1.83,1.83,0,0,0,0-.47c0-.18-.27-.24-.75-.18L80,135l2.19-.27.06.52A.77.77,0,0,0,81.59,135.66Zm10.67,3.47a2.9,2.9,0,0,1-1.92,1.67,3.36,3.36,0,0,1-1.25.13,2.56,2.56,0,0,1-1.17-.4,3.39,3.39,0,0,1-1-1,6,6,0,0,1-.75-1.66,6.17,6.17,0,0,1-.29-1.83,3.4,3.4,0,0,1,.27-1.4,2.62,2.62,0,0,1,.76-1,3.24,3.24,0,0,1,1.14-.58,3.11,3.11,0,0,1,1.28-.12,3,3,0,0,1,1.2.42,4,4,0,0,1,1,1,5.37,5.37,0,0,1,.73,1.58,5.81,5.81,0,0,1,.27,1.76A3.94,3.94,0,0,1,92.26,139.13Zm1.8.3-.18-.45a.73.73,0,0,0,.4-1.09l-1.88-4.6c-.24-.57-.62-.75-1.14-.53l-.2-.48,4.76-1.95,1,2-.54.29a3.31,3.31,0,0,0-.56-.75,1.32,1.32,0,0,0-.54-.33,1.22,1.22,0,0,0-.57,0,4.87,4.87,0,0,0-.67.23c-.31.12-.41.31-.31.55l.76,1.85c.09.23.28.28.56.16a1,1,0,0,0,.33-.19.44.44,0,0,0,.14-.26,1,1,0,0,0,0-.38l-.12-.57.45-.19,1.17,2.84-.47.19-.11-.27a1.4,1.4,0,0,0-.14-.27.82.82,0,0,0-.24-.25.7.7,0,0,0-.37-.1A1.26,1.26,0,0,0,95,135c-.11,0-.17.1-.19.16a.25.25,0,0,0,0,.2l.79,1.94c.22.53.61.67,1.19.43l.18.46ZM105.9,133a1.77,1.77,0,0,1-.32.76,2.14,2.14,0,0,1-.64.59,2.37,2.37,0,0,1-.62.25,1.4,1.4,0,0,1-.67,0,3.34,3.34,0,0,1-.17.44,1.84,1.84,0,0,1-.24.39,4.68,4.68,0,0,1-.56-.62,6.43,6.43,0,0,1-.48-.72q-.17-.25-.3-.51c-.09-.17-.18-.35-.26-.54l.51-.31a4.55,4.55,0,0,0,.47.64,2.7,2.7,0,0,0,.59.49,1.69,1.69,0,0,0,.67.24,1.13,1.13,0,0,0,.68-.17,1.57,1.57,0,0,0,.47-.39,1,1,0,0,0,.19-.44,1,1,0,0,0,0-.46,1.6,1.6,0,0,0-.19-.45,1.24,1.24,0,0,0-.49-.5,1.1,1.1,0,0,0-.69-.1c-.4.05-.78.09-1.13.11a3.21,3.21,0,0,1-1-.08,2.18,2.18,0,0,1-.86-.4,2.81,2.81,0,0,1-.75-.86,2.54,2.54,0,0,1-.33-.86,2.11,2.11,0,0,1,0-.79,1.77,1.77,0,0,1,.3-.67,1.91,1.91,0,0,1,.55-.51,1.37,1.37,0,0,1,.64-.19,1.25,1.25,0,0,1,.72.18.87.87,0,0,1,0-.48,1.47,1.47,0,0,1,.22-.39,7.12,7.12,0,0,1,.79,1q.39.6.72,1.14l-.54.32a7.5,7.5,0,0,0-.6-.64A3,3,0,0,0,102,128a1.23,1.23,0,0,0-.54-.18.7.7,0,0,0-.47.11,1.12,1.12,0,0,0-.57.66,1,1,0,0,0,.12.76,1.24,1.24,0,0,0,.35.39,1.21,1.21,0,0,0,.44.16,2.48,2.48,0,0,0,.55,0l.7-.06.83,0a2.18,2.18,0,0,1,.72.12,2.09,2.09,0,0,1,.66.4,3.27,3.27,0,0,1,.63.8,3.31,3.31,0,0,1,.41,1A2.24,2.24,0,0,1,105.9,133Zm4.66-3.29a2.15,2.15,0,0,1-.28.83,2.12,2.12,0,0,1-.57.63,2.93,2.93,0,0,1-1.32.58,2.49,2.49,0,0,1-1.24-.11A3.78,3.78,0,0,1,106,131a6.66,6.66,0,0,1-1-1.17,8.75,8.75,0,0,1-.86-1.43,3.74,3.74,0,0,1-.38-1.33,2.37,2.37,0,0,1,.17-1.19,2.24,2.24,0,0,1,.81-1,4.2,4.2,0,0,1,.38-.24,3.52,3.52,0,0,1,.45-.18,2,2,0,0,1,.47-.1,1.39,1.39,0,0,1,.46,0,1.19,1.19,0,0,1,.17-.88,9.24,9.24,0,0,1,1.9,2l-.52.38a4.27,4.27,0,0,0-1.51-1,1.3,1.3,0,0,0-1.17.21,1.11,1.11,0,0,0-.46.66,2,2,0,0,0,0,.83,4.27,4.27,0,0,0,.39.94,10.88,10.88,0,0,0,.61.95c.31.42.62.8.92,1.14a4.61,4.61,0,0,0,.91.8,2,2,0,0,0,.89.34,1.2,1.2,0,0,0,.85-.25,1.52,1.52,0,0,0,.63-1,4,4,0,0,0-.28-1.69l.43-.08a4.13,4.13,0,0,1,.3,1A2.82,2.82,0,0,1,110.56,129.73Zm1.36-.44-.32-.38c.43-.36.5-.73.19-1.09l-3.31-3.89a.79.79,0,0,0-1.27-.13l-.34-.4,2.44-2.07.34.39c-.42.35-.42.76,0,1.23l3.31,3.9c.31.36.68.36,1.12,0l.32.37Zm10.62-10.69-6.5-.3,2.56,2.1c.66.54,1.19.57,1.58.09l.38.31-1.44,1.76-.38-.31q.48-.59-.51-1.41l-3.93-3.21c-.18-.16-.46,0-.81.38l1.27,1.2-.35.43a3.67,3.67,0,0,0-.87-.53,1.19,1.19,0,0,0-.62-.09,1,1,0,0,0-.49.22c-.14.12-.3.26-.47.43a.85.85,0,0,0-.25.4.39.39,0,0,0,.11.35l1.45,1.45c.13.13.24.15.34,0a1.78,1.78,0,0,0,.26-.31.66.66,0,0,0,.12-.34.86.86,0,0,0-.09-.42,2,2,0,0,0-.39-.56l.38-.38,2.2,2.22-.38.37a4.1,4.1,0,0,0-.51-.39.93.93,0,0,0-.39-.14.54.54,0,0,0-.33.08,1.47,1.47,0,0,0-.34.26.3.3,0,0,0,0,.44l1.54,1.55c.27.26.56.23.89-.09a3,3,0,0,0,.55-.71,1.26,1.26,0,0,0,.15-.62,1.85,1.85,0,0,0-.17-.65c-.11-.23-.24-.49-.41-.78l.44-.3,1.52,1.89-3.77,3.75-.34-.35c.39-.38.42-.74.1-1.06L111,121.7a.78.78,0,0,0-1.25,0l-.36-.37,3.72-3.7,0,0,1-1.25,5.81.33-2.33-1.91q-.91-.75-1.5,0l-.4-.33,1.44-1.75.4.32c-.35.43-.22.89.39,1.39l4.71,3.87Zm2.95-4.5a2,2,0,0,1-.32.79,3.08,3.08,0,0,1-1,1,2.54,2.54,0,0,1-1.2.33,3.71,3.71,0,0,1-1.32-.25,7.45,7.45,0,0,1-1.39-.73,8.84,8.84,0,0,1-1.3-1,3.82,3.82,0,0,1-.83-1.12,2.23,2.23,0,0,1,.16-2.36,2.93,2.93,0,0,1,.28-.36,3.61,3.61,0,0,1,.35-.33,2,2,0,0,1,.41-.25,1.28,1.28,0,0,1,.45-.13,1.17,1.17,0,0,1-.15-.88,9,9,0,0,1,2.49,1.26l-.35.53a4.23,4.23,0,0,0-1.77-.42,1.27,1.27,0,0,0-1,.6,1.1,1.1,0,0,0-.2.78,1.76,1.76,0,0,0,.32.77,3.61,3.61,0,0,0,.69.74c.29.24.59.46.91.68a12.09,12.09,0,0,0,1.26.74,4.76,4.76,0,0,0,1.13.44,1.9,1.9,0,0,0,1,0,1.17,1.17,0,0,0,.71-.54,1.43,1.43,0,0,0,.22-1.18,4,4,0,0,0-.85-1.49l.38-.22a4.45,4.45,0,0,1,.64.86,3,3,0,0,1,.35.9A2.56,2.56,0,0,1,125.49,114.1Zm1.19-1.87-.43-.23c.25-.48.18-.83-.22-1l-4.58-2.44a.78.78,0,0,0-1.19.38l-.46-.25,2.47-4.63,2,1-.21.52a3.79,3.79,0,0,0-1-.25,1.18,1.18,0,0,0-.62.1,1,1,0,0,0-.4.35,5.36,5.36,0,0,0-.32.55.74.74,0,0,0-.12.46.37.37,0,0,0,.2.3l1.81,1c.17.09.28.07.35-.06a2.3,2.3,0,0,0,.16-.37.73.73,0,0,0,0-.36.89.89,0,0,0-.22-.38,2.07,2.07,0,0,0-.53-.41l.25-.47,2.76,1.46-.25.47a3.91,3.91,0,0,0-.61-.22.88.88,0,0,0-.42,0,.66.66,0,0,0-.29.17,2.29,2.29,0,0,0-.25.35.3.3,0,0,0,.14.42l1.93,1c.33.18.6.07.81-.34a2.56,2.56,0,0,0,.32-.84,1.25,1.25,0,0,0,0-.64,2,2,0,0,0-.35-.57l-.62-.63.33-.41,2,1.36Zm3.47-6.8a1.28,1.28,0,0,1-.56.37,3.45,3.45,0,0,1,.12.46,2.38,2.38,0,0,1,0,.46,5.43,5.43,0,0,1-.82-.18c-.27-.08-.54-.18-.81-.29l-.55-.25-.53-.27.23-.55a4.48,4.48,0,0,0,.76.23,2.88,2.88,0,0,0,.77,0,1.64,1.64,0,0,0,.67-.2,1.12,1.12,0,0,0,.46-.54,1.61,1.61,0,0,0,.14-.59,1,1,0,0,0-.1-.47,1,1,0,0,0-.29-.36,1.46,1.46,0,0,0-.42-.25,1.27,1.27,0,0,0-.69-.12,1.15,1.15,0,0,0-.62.33c-.29.28-.57.53-.84.76a3.42,3.42,0,0,1-.84.52,2.5,2.5,0,0,1-.94.19,3,3,0,0,1-1.11-.26,2.55,2.55,0,0,1-.77-.49,2.19,2.19,0,0,1-.48-.64,1.84,1.84,0,0,1-.16-.72,1.87,1.87,0,0,1,.15-.73,1.41,1.41,0,0,1,.4-.54,1.26,1.26,0,0,1,.69-.27.89.89,0,0,1-.24-.42,1.85,1.85,0,0,1-.06-.44,6.76,6.76,0,0,1,1.24.33l1.25.49-.25.59a8.13,8.13,0,0,0-.86-.17,3.5,3.5,0,0,0-.72,0,1.63,1.63,0,0,0-.54.17.83.83,0,0,0-.32.37,1.12,1.12,0,0,0-.06.87.93.93,0,0,0,.55.55,1.12,1.12,0,0,0,.51.1,1,1,0,0,0,.44-.13,2,2,0,0,0,.46-.32l.53-.46.64-.51a2.27,2.27,0,0,1,.66-.33,2.15,2.15,0,0,1,.77-.07,3.44,3.44,0,0,1,1,.28,3.26,3.26,0,0,1,.9.54,2.13,2.13,0,0,1,.55.7,1.73,1.73,0,0,1,.19.81,2,2,0,0,1-.17.85A2.12,2.12,0,0,1,130.15,105.43Z"/><g id="CIRCLE"><path class="cls-3" d="M72.13,8.18A71.65,71.65,0,1,1,.47,79.83,71.73,71.73,0,0,1,72.13,8.18Zm70.71,71.65a70.72,70.72,0,1,0-70.71,70.72A70.8,70.8,0,0,0,142.84,79.83Z"/><path class="cls-3" d="M72.13,151.6a71.77,71.77,0,1,1,71.76-71.77A71.85,71.85,0,0,1,72.13,151.6Zm0-143.29a71.52,71.52,0,1,0,71.51,71.52A71.6,71.6,0,0,0,72.13,8.31Z"/><path class="cls-3" d="M72.13,150.68A70.85,70.85,0,1,1,143,79.83,70.93,70.93,0,0,1,72.13,150.68Zm0-141.45a70.6,70.6,0,1,0,70.59,70.6A70.69,70.69,0,0,0,72.13,9.23Z"/></g><path class="cls-3" d="M72.12,75.2a4.63,4.63,0,1,0,4.63,4.63A4.63,4.63,0,0,0,72.12,75.2Z"/><path class="cls-3" d="M107.26,76.13,114.55,64l-11.38-8.56-20.78,4,4.09-11.87-6.89-12.4L66.48,40.73l-6.9,20-8.23-9.48L37.16,51,35.44,65.16l13.88,16L37,83.53,29.7,95.71l11.38,8.56,20.78-4-4.1,11.87,6.9,12.4,13.1-5.58,6.91-20,8.23,9.48,14.19.23,1.72-14.13-13.88-16ZM69.74,61.46A2.76,2.76,0,1,1,67,64.21,2.76,2.76,0,0,1,69.74,61.46ZM54.65,74.08a2.76,2.76,0,1,1,2.76,2.76A2.77,2.77,0,0,1,54.65,74.08Zm5.14,18.38a2.76,2.76,0,1,1,2.76-2.76A2.77,2.77,0,0,1,59.79,92.46ZM74.5,98.2a2.76,2.76,0,1,1,2.76-2.76A2.76,2.76,0,0,1,74.5,98.2ZM82,77.76l-1.69,0-1.2,9.53a.12.12,0,0,1-.23,0L78,85.82l-8.85,3.73h0a.13.13,0,0,1-.1,0,.14.14,0,0,1,0-.15l.88-1.45-7.66-5.8a.13.13,0,0,1,0-.14.13.13,0,0,1,.12-.08l1.7,0,1.2-9.53a.12.12,0,0,1,.23-.05l.82,1.49,8.85-3.74a.14.14,0,0,1,.15,0,.12.12,0,0,1,0,.14l-.88,1.45L82,77.54a.12.12,0,0,1,0,.14A.1.1,0,0,1,82,77.76ZM81.7,70a2.76,2.76,0,1,1,2.76,2.76A2.77,2.77,0,0,1,81.7,70Zm5.14,18.37a2.76,2.76,0,1,1,2.75-2.75A2.76,2.76,0,0,1,86.84,88.33Z"/><g id="CIRCLE-2" data-name="CIRCLE"><path class="cls-3" d="M72.12,127.05a47.24,47.24,0,1,1,47.23-47.23A47.29,47.29,0,0,1,72.12,127.05Zm0-93.22a46,46,0,1,0,46,46A46,46,0,0,0,72.12,33.83Z"/></g><path class="cls-4" d="M24.32,60.21a5.94,5.94,0,0,1-1-.61,3.27,3.27,0,0,1-.35-.3,5.54,5.54,0,0,0-.8-.65,1.9,1.9,0,0,1-.39-.36,1.31,1.31,0,0,1-.24-.37.5.5,0,0,0-.29-.28,3.07,3.07,0,0,1-.5-.2.66.66,0,0,1-.32-.34,1.21,1.21,0,0,0-.09-.2l-.15-.3c-.08-.19-.15-.39-.22-.58a.69.69,0,0,1,0-.45A1.22,1.22,0,0,0,20,55a1.48,1.48,0,0,0-.12-.29.61.61,0,0,0-.12-.15.27.27,0,0,1-.07-.29.46.46,0,0,0,0-.38l-.13-.2a.13.13,0,0,0-.18,0l0,0a1.33,1.33,0,0,0-.24.4,1,1,0,0,0,0,.48,1.61,1.61,0,0,1,0,.49.66.66,0,0,1-.09.27.2.2,0,0,1-.08.08.17.17,0,0,1-.21-.09.79.79,0,0,0-.29-.36.43.43,0,0,1-.2-.32l-.06-.44A.6.6,0,0,0,18,54a.75.75,0,0,1-.14-.63.45.45,0,0,0-.05-.3.54.54,0,0,1-.08-.33.87.87,0,0,0,0-.39,2.37,2.37,0,0,0-.13-.34.87.87,0,0,1-.09-.55.22.22,0,0,0-.18-.25,1.08,1.08,0,0,0-.59,0,1,1,0,0,0-.59.57,3,3,0,0,0-.2.65c-.07.31-.13.63-.19.94a7.91,7.91,0,0,0-.13.85.23.23,0,0,1-.25.2,1.06,1.06,0,0,1-.48-.19L14.52,54a1.09,1.09,0,0,0-1.43.06,1.34,1.34,0,0,0-.25.37.21.21,0,0,1-.25.11,1.27,1.27,0,0,0-.28-.06.32.32,0,0,0-.37.28v0a.3.3,0,0,1,0,.1.65.65,0,0,0-.14.29,1,1,0,0,0,.09.68.84.84,0,0,0,.41.38.34.34,0,0,0,.37-.09.75.75,0,0,1,.16-.15l.13-.1a.88.88,0,0,1,.55.12,7.1,7.1,0,0,0,1,.47,2.8,2.8,0,0,1,.83.49l.16.13a.8.8,0,0,1,.25.5,5.91,5.91,0,0,0,.3,1.17c.17.43.33.85.5,1.27a3.71,3.71,0,0,0,.29.56.34.34,0,0,1-.05.45,2.55,2.55,0,0,1-.3.26.64.64,0,0,1-.5.13l-.55-.06a1.49,1.49,0,0,1-.51-.14.94.94,0,0,0-.37-.07.54.54,0,0,0-.28.08.12.12,0,0,0,0,.14,2.11,2.11,0,0,0,.48.63,1.29,1.29,0,0,0,.44.25,3,3,0,0,0,.88.16,3.4,3.4,0,0,1,.45,0l.35.07a3.6,3.6,0,0,0,1.31,0,.66.66,0,0,0,.49-.35,1.19,1.19,0,0,0,.15-.69.94.94,0,0,0-.13-.43.61.61,0,0,0-.44-.32,1.19,1.19,0,0,1-.55-.27.63.63,0,0,1-.2-.33,1,1,0,0,1,0-.3.75.75,0,0,0,0-.29.64.64,0,0,0-.14-.22.34.34,0,0,1-.1-.3,2.57,2.57,0,0,1,.16-.54.27.27,0,0,1,.34-.15l.66.2a5.86,5.86,0,0,1,1,.36.15.15,0,0,1,.08.16,1.3,1.3,0,0,1-.08.34,3.21,3.21,0,0,1-.24.45.6.6,0,0,1-.24.21.21.21,0,0,0-.12.21.23.23,0,0,0,.11.18.72.72,0,0,0,.4.12,1,1,0,0,0,.54-.13.72.72,0,0,0,.28-.27.35.35,0,0,0,0-.33.44.44,0,0,1,0-.23.31.31,0,0,1,.13-.19.27.27,0,0,1,.3,0,2.47,2.47,0,0,0,.46.23c.29.12.58.25.86.39a3.56,3.56,0,0,0,1,.3,3,3,0,0,1,.78.2,2.9,2.9,0,0,0,.82.2,2,2,0,0,0,.35,0,.13.13,0,0,0,.12-.14.2.2,0,0,0,0-.08A1.63,1.63,0,0,0,24.32,60.21Zm-6.83-4.77h0a.05.05,0,0,1-.07,0l-.32-.13a.72.72,0,0,1-.21-.12,1.37,1.37,0,0,1-.52-.43.41.41,0,0,1-.07-.11.38.38,0,0,1,0-.31,1.15,1.15,0,0,0,0-.37.61.61,0,0,1,0-.3.55.55,0,0,1,.17-.28.2.2,0,0,1,.22,0,.16.16,0,0,1,.09.12.47.47,0,0,0,.16.31.62.62,0,0,0,.19.12.23.23,0,0,1,.14.21,1.49,1.49,0,0,1,0,.21.4.4,0,0,0,0,.28.33.33,0,0,0,.11.13.37.37,0,0,1,.14.28A2.58,2.58,0,0,1,17.49,55.44Z"/><path class="cls-4" d="M45.86,34.26a19.21,19.21,0,0,0-1.75-2.36,5,5,0,0,1-.78-1.25,4.19,4.19,0,0,0-.39-.72,10.72,10.72,0,0,0-.68-.94,14.63,14.63,0,0,1-1.21-1.81,2,2,0,0,0-.64-.73,5.5,5.5,0,0,1-.85-.75.54.54,0,0,0-.42-.16,1.66,1.66,0,0,1-.73-.08,1,1,0,0,0-.92.14,5.49,5.49,0,0,0-1,.89c-.25.29-.48.58-.71.89a10.45,10.45,0,0,0-.74,1.13,2.45,2.45,0,0,0-.29.78c-.08.49-.16,1-.26,1.45a5.72,5.72,0,0,0-.08,1.6,3.78,3.78,0,0,0,.2.87,5.58,5.58,0,0,0,.67,1.25l.72,1c.37.51.73,1,1.07,1.54a2.7,2.7,0,0,1,.45,1.19,5,5,0,0,0,.2.87.26.26,0,0,1,0,.21.11.11,0,0,1-.1.07.11.11,0,0,1-.12-.06c0-.08-.09-.16-.14-.24-.16-.28-.33-.56-.5-.84a7.55,7.55,0,0,1-.48-.94,2.7,2.7,0,0,0-.36-.64.33.33,0,0,1,0-.32.21.21,0,0,0,0-.2c-.08-.12-.17-.23-.26-.34a2.85,2.85,0,0,1-.4-.58,8.85,8.85,0,0,0-.6-1c-.19-.27-.36-.54-.52-.82a.79.79,0,0,1-.1-.27.72.72,0,0,0-.52-.56.08.08,0,0,0-.09.06,0,0,0,0,0,0,0,2,2,0,0,0,.28.74l.22.35q.38.63.69,1.29c.41.84.85,1.68,1.31,2.5s.85,1.52,1.26,2.29a2.78,2.78,0,0,0,.77.9,1.56,1.56,0,0,0,.4.22.2.2,0,0,0,.27-.11,1.11,1.11,0,0,0,0-.8c0-.14-.11-.28-.16-.41a1.43,1.43,0,0,1-.09-.27c0-.15-.07-.29-.1-.43q-.15-.67-.36-1.35a3.17,3.17,0,0,1-.12-.44A.08.08,0,0,1,38,37a.14.14,0,0,1,.15,0l.12.12a3.39,3.39,0,0,0,.53.38,3.65,3.65,0,0,0,1.09.43,6.75,6.75,0,0,0,1.48.14,7.5,7.5,0,0,0,1.5-.18A2.42,2.42,0,0,0,44,37.35a4.35,4.35,0,0,1,1.18-.81,5.32,5.32,0,0,0,.61-.35,2.1,2.1,0,0,0,.56-.59.82.82,0,0,0,.13-.57.46.46,0,0,0-.15-.26A2.59,2.59,0,0,1,45.86,34.26Zm-6,1.11a.6.6,0,0,0-.14.21,1.22,1.22,0,0,0-.06.6c0,.22.07.44.1.67a1,1,0,0,1,0,.34.19.19,0,0,1-.11.14.33.33,0,0,1-.32,0,2.78,2.78,0,0,0-.76-.36,2,2,0,0,1-.88-.54c-.38-.41-.77-.81-1.18-1.2a9.37,9.37,0,0,1-.81-.86,3,3,0,0,1-.2-.29.6.6,0,0,1-.06-.49,1.69,1.69,0,0,0,.07-.74c0-.14,0-.29,0-.43a.23.23,0,0,0-.15-.22,3.83,3.83,0,0,1-.19-.94.52.52,0,0,1,.1-.34l0,0a.07.07,0,0,1,.11,0,.73.73,0,0,1,.12.33l0,.52a2.53,2.53,0,0,1,0,.28.15.15,0,0,0,.11.13.78.78,0,0,0,.4,0,.17.17,0,0,1,.17,0,1.73,1.73,0,0,1,.49.58.53.53,0,0,1,0,.41.33.33,0,0,1-.16.19.25.25,0,0,0-.12.26.31.31,0,0,0,.11.16.63.63,0,0,1,.2.26.09.09,0,0,0,.12,0,.31.31,0,0,1,.25,0,.57.57,0,0,1,.27.24.14.14,0,0,0,.09.08.26.26,0,0,1,.15.31l-.12.37a1.51,1.51,0,0,0-.07.37.32.32,0,0,0,0,.17.29.29,0,0,0,.2.19A.85.85,0,0,1,38,36a.45.45,0,0,0,.46.08,1.15,1.15,0,0,1,.37-.06.25.25,0,0,0,.26-.23,2.48,2.48,0,0,1,.12-.66.74.74,0,0,1,.22-.33.37.37,0,0,1,.32-.07.65.65,0,0,1,.22.11.27.27,0,0,1,.09.28A.58.58,0,0,1,39.87,35.37Zm-1.36-2.65a.21.21,0,0,1,.08-.22.2.2,0,0,1,.17,0l.12.05a.75.75,0,0,1,.22.25.86.86,0,0,1,.09.3.64.64,0,0,1-.07.43.35.35,0,0,1-.15.17h0a.29.29,0,0,1-.41-.11c-.06-.09-.11-.19-.16-.28a.18.18,0,0,1,0-.2A.39.39,0,0,0,38.51,32.72Zm0,2a.88.88,0,0,0,0,.17.23.23,0,0,1-.1.19.32.32,0,0,1-.19,0,.19.19,0,0,1-.09-.05.1.1,0,0,1,0-.1.51.51,0,0,0,0-.3.21.21,0,0,1,.08-.21.24.24,0,0,1,.23,0A.28.28,0,0,1,38.46,34.67Zm-.4-2.85a.64.64,0,0,1-.26.1.1.1,0,0,1-.1,0,.35.35,0,0,1,0-.3.37.37,0,0,1,.3-.24.19.19,0,0,1,.18.09.27.27,0,0,1,0,.21A.26.26,0,0,1,38.06,31.82Zm7,3.45a7.58,7.58,0,0,0-.82.68,7.92,7.92,0,0,1-.77.64,5,5,0,0,0-.51.4,1.89,1.89,0,0,1-.61.36,3.44,3.44,0,0,1-1,.21,2.48,2.48,0,0,1-.61,0l-.12,0a.32.32,0,0,1-.08-.43,2.06,2.06,0,0,1,.59-.55l.55-.33a2.85,2.85,0,0,0,.78-.73.56.56,0,0,0,0-.56,4.94,4.94,0,0,0-.3-.49,5,5,0,0,0-.57-.72.62.62,0,0,1-.16-.55,2.59,2.59,0,0,0,0-.48.35.35,0,0,1,.17-.32,1.06,1.06,0,0,0,.29-.27,1.16,1.16,0,0,0,.23-.59.65.65,0,0,0-.07-.36.36.36,0,0,0-.41-.2l-.64.17a.7.7,0,0,0-.46.51,3.59,3.59,0,0,1-.12.47.12.12,0,0,1-.12.09.19.19,0,0,0-.17.2.21.21,0,0,0,0,.1,1.8,1.8,0,0,1,.28.53,1,1,0,0,1,0,.64.86.86,0,0,1-.34.43.5.5,0,0,1-.24.09h-.07a.21.21,0,0,1-.17-.25,2.13,2.13,0,0,1,.2-.55,1,1,0,0,0,.11-.61,1.15,1.15,0,0,0-.35-.67,5.1,5.1,0,0,1-.61-.7.3.3,0,0,0-.23-.11.55.55,0,0,1-.35-.12,4.68,4.68,0,0,1-.56-.53.65.65,0,0,1-.15-.5.18.18,0,0,0-.15-.2.51.51,0,0,0-.53.27.38.38,0,0,1-.32.21,3.55,3.55,0,0,1-1-.06.17.17,0,0,1-.13-.17.83.83,0,0,1,0-.69,4.18,4.18,0,0,1,.28-.56c.24-.42.47-.85.69-1.28a3,3,0,0,1,.71-.9,3.14,3.14,0,0,1,.68-.43.81.81,0,0,1,.63,0,.8.8,0,0,1,.27.18,3.09,3.09,0,0,0,.8.58,3.52,3.52,0,0,1,1,.81c.29.32.57.65.86,1a3.11,3.11,0,0,1,.57,1,2,2,0,0,0,.36.65,6.24,6.24,0,0,1,.9,1.37c0,.12.1.23.14.35a3.06,3.06,0,0,0,.35.64c.31.41.64.81,1,1.19a1.49,1.49,0,0,1,.39.84A.42.42,0,0,1,45,35.27Zm-4.27-.67a.27.27,0,0,1,.14-.29.29.29,0,0,1,.24,0,.3.3,0,0,1,.16.23,2.22,2.22,0,0,1,0,.45,2.36,2.36,0,0,0,0,.46.14.14,0,0,1-.09.15,1.11,1.11,0,0,0-.34.18.58.58,0,0,0-.15.11.07.07,0,0,1-.1,0,.17.17,0,0,1,0-.1,1.09,1.09,0,0,1,.13-.71A.67.67,0,0,0,40.75,34.6Z"/><path class="cls-4" d="M70.37,21.35a.88.88,0,0,0,.43-.27,2.79,2.79,0,0,1,.39-.38.38.38,0,0,0,.14-.27.18.18,0,0,0-.13-.18L71,20.13a2.57,2.57,0,0,0-.52-.27L70,19.68a.18.18,0,0,0-.22.08c-.06.1-.12.2-.17.3a.49.49,0,0,0,0,.41.12.12,0,0,1,0,.14.7.7,0,0,1-.24.3,1.13,1.13,0,0,1-.27.13,1.16,1.16,0,0,1-.49.05,3.83,3.83,0,0,0-.83,0,.42.42,0,0,1-.31-.06.2.2,0,0,1-.09-.22.56.56,0,0,1,.15-.27l.31-.28a6.44,6.44,0,0,0,1-1.21,1.06,1.06,0,0,1,.45-.39,1.24,1.24,0,0,0,.54-.5,3,3,0,0,0,.18-.41.61.61,0,0,1,.45-.39,2.46,2.46,0,0,0,.74-.28.27.27,0,0,0,.12-.23.32.32,0,0,0-.14-.27,3.22,3.22,0,0,1-.32-.32,1.25,1.25,0,0,0-.52-.36.45.45,0,0,0-.36,0,.53.53,0,0,0-.29.22.59.59,0,0,0-.09.45.79.79,0,0,1-.22.68,4.26,4.26,0,0,0-.52.52l-1,1.2c-.28.35-.58.69-.87,1a2.62,2.62,0,0,1-.76.6.36.36,0,0,0-.19.32,3.4,3.4,0,0,1,0,.45,1.12,1.12,0,0,1-.08.26.46.46,0,0,0,.06.45.25.25,0,0,0,.34.07.44.44,0,0,0,.23-.29.19.19,0,0,1,.16-.15,2.67,2.67,0,0,1,.4,0,6.18,6.18,0,0,0,1.36,0,.29.29,0,0,1,.2.05,1.17,1.17,0,0,0,.27.15.25.25,0,0,1,.15.18c0,.07,0,.15,0,.22a2,2,0,0,1,0,.9,1.2,1.2,0,0,1-.2.39c-.1.12-.2.23-.31.34l0,0a.26.26,0,0,1-.35-.1,1.15,1.15,0,0,1-.14-.38A1.29,1.29,0,0,1,68,23a.32.32,0,0,0-.07-.27.09.09,0,0,0-.14,0h0l-.13.14a2.28,2.28,0,0,0-.36.46.63.63,0,0,1-.36.25.47.47,0,0,0-.33.28,1.37,1.37,0,0,0-.06.75,1,1,0,0,1-.06.6.48.48,0,0,0,0,.48.58.58,0,0,0,.29.22.43.43,0,0,0,.49-.18l.25-.39a.67.67,0,0,1,.27-.23,1,1,0,0,0,.29-.24.8.8,0,0,1,.37-.23.57.57,0,0,1,.29,0,.31.31,0,0,1,.16.18,2.5,2.5,0,0,1,.15.71,2.17,2.17,0,0,0,.13.56.65.65,0,0,0,.35.36,1.33,1.33,0,0,0,.48.1.31.31,0,0,0,.32-.22,1,1,0,0,0,0-.61c-.06-.21-.12-.42-.17-.63s-.12-.6-.16-.9a1.76,1.76,0,0,1,.16-1,3.48,3.48,0,0,1,.22-.43,1.41,1.41,0,0,1,.43-.48.5.5,0,0,0,.22-.43.21.21,0,0,0-.12-.18.27.27,0,0,0-.33.05.87.87,0,0,0-.19.28v0a.25.25,0,0,1-.33.1A.17.17,0,0,1,70,22l.09-.41A.34.34,0,0,1,70.37,21.35Z"/><path class="cls-4" d="M76.68,21.45l-.54-.62a.46.46,0,0,1-.1-.25c0-.21,0-.41,0-.62a4.46,4.46,0,0,1,.07-.51c.06-.28.1-.58.14-.87a5.83,5.83,0,0,0,0-.59v-.48a.23.23,0,0,0-.21-.23.48.48,0,0,1-.21-.07.36.36,0,0,1-.11-.16,1.35,1.35,0,0,1,0-.4.28.28,0,0,0-.15-.29.26.26,0,0,0-.33.09.58.58,0,0,1-.24.25,2,2,0,0,1-.29.15l-.21.08a.43.43,0,0,0-.24.18,1.62,1.62,0,0,0-.1.18,1.25,1.25,0,0,0-.07.26.32.32,0,0,1-.2.26.56.56,0,0,1-.36,0,.45.45,0,0,1-.21-.12.1.1,0,0,1,0-.09.13.13,0,0,0,0-.12.13.13,0,0,0-.11-.06.86.86,0,0,1-.28,0,.22.22,0,0,0-.23.06.34.34,0,0,0-.09.12.33.33,0,0,0,0,.37,4.89,4.89,0,0,1,.41.6.8.8,0,0,1,0,.15.37.37,0,0,1,0,.21,2.88,2.88,0,0,1-.13.31.68.68,0,0,1-.45.36.17.17,0,0,0-.13.2v0a.67.67,0,0,1,.07.31,3.11,3.11,0,0,0,.06.44,1.91,1.91,0,0,0,.18.47.2.2,0,0,1,0,.21,2.11,2.11,0,0,0-.35.62,1.48,1.48,0,0,1-.4.59.91.91,0,0,0-.24.37c0,.12-.08.25-.11.37a2.62,2.62,0,0,1-.2.53.8.8,0,0,0,0,.57.45.45,0,0,0,.12.21.41.41,0,0,0,.37.09.7.7,0,0,0,.35-.23,2.13,2.13,0,0,1,.48-.42.26.26,0,0,1,.24,0,.28.28,0,0,0,.33-.08,2.5,2.5,0,0,1,.23-.23,1.76,1.76,0,0,1,.3-.24.17.17,0,0,1,.21,0,.46.46,0,0,1,.14.17A.45.45,0,0,1,74,24a.71.71,0,0,0-.09.28,1.55,1.55,0,0,0,0,.43,2.49,2.49,0,0,1,0,.61,1.63,1.63,0,0,0,0,.54,8.1,8.1,0,0,1,0,2.2,10.21,10.21,0,0,0-.09,1.56.07.07,0,0,0,.08.07h0a.69.69,0,0,0,.33-.45c.08-.37.17-.74.25-1.1a6.09,6.09,0,0,1,.31-.94q.39-.93.69-1.89a.93.93,0,0,0,0-.47,4.73,4.73,0,0,1,0-.75,2.93,2.93,0,0,1,.13-.83.75.75,0,0,1,.2-.3,1.9,1.9,0,0,1,.54-.34.73.73,0,0,0,.33-.25.81.81,0,0,1,.19-.18A.2.2,0,0,0,77,22a.37.37,0,0,0-.08-.22C76.84,21.64,76.76,21.55,76.68,21.45ZM74,21.51a2.1,2.1,0,0,0,0,.5.7.7,0,0,1,0,.32.26.26,0,0,1-.27.18h-.28l-.34,0a.17.17,0,0,0-.17.15.5.5,0,0,0,0,.21h0a.08.08,0,0,1-.08.07.51.51,0,0,1-.17,0,.07.07,0,0,1,0-.06.28.28,0,0,0,0-.22.07.07,0,0,1,0-.09l.1-.11c.14-.14.27-.29.4-.44a2.45,2.45,0,0,0,.43-.71.79.79,0,0,1,.27-.33A.17.17,0,0,1,74,21a.16.16,0,0,1,.06.08.33.33,0,0,1,0,.14C74.07,21.31,74.06,21.41,74,21.51Zm.3-.73a.14.14,0,0,1-.06.11.09.09,0,0,1-.11,0,.55.55,0,0,1-.16-.3,1.91,1.91,0,0,1-.18-.47.24.24,0,0,0,0-.1,1.75,1.75,0,0,1-.18-.29.28.28,0,0,1,0-.25.53.53,0,0,0,.08-.17,1.75,1.75,0,0,1,.12-.32.64.64,0,0,1,.25-.24.27.27,0,0,1,.2,0,.1.1,0,0,1,.08.09A10,10,0,0,1,74.34,20.78Z"/><path class="cls-4" d="M104.37,27.15a.62.62,0,0,0,.47.39.93.93,0,0,0,.65-.12,1.12,1.12,0,0,0,.49-.6,2.07,2.07,0,0,0,.1-.78,5.21,5.21,0,0,1,.16-1.52.17.17,0,0,0,0-.15.12.12,0,0,0-.15,0s0,0,0,0a1.94,1.94,0,0,0-1.28,1l-.48.89a.55.55,0,0,0,0,.4C104.27,26.84,104.32,27,104.37,27.15Z"/><path class="cls-4" d="M107.4,28.36a.2.2,0,0,0,.15.2.74.74,0,0,0,.58-.08.76.76,0,0,1,.42-.09c.33,0,.67,0,1,0l.51,0a.1.1,0,0,0,.09-.07.23.23,0,0,0-.1-.22.76.76,0,0,0-.53-.12,1,1,0,0,1-.66-.15.35.35,0,0,1-.13-.19,1.5,1.5,0,0,1,0-.2.11.11,0,0,0-.11-.12h0a.16.16,0,0,1-.19-.05.14.14,0,0,1,0-.11,1.84,1.84,0,0,1,0-.41.22.22,0,0,0-.12-.22.33.33,0,0,0-.29,0,1.13,1.13,0,0,0-.3.24,2,2,0,0,0-.26.39.84.84,0,0,0-.06.47A2.74,2.74,0,0,1,107.4,28.36Z"/><path class="cls-4" d="M111.29,29.43a1.42,1.42,0,0,0,0-.58.29.29,0,0,0-.25-.21.15.15,0,0,1-.14-.17.09.09,0,0,0-.09-.1h0a.56.56,0,0,0-.36.31,1.59,1.59,0,0,1-.43.56.66.66,0,0,1-.42.15h-.77a3.16,3.16,0,0,1-.68-.08.85.85,0,0,0-.39,0,3,3,0,0,1-.74,0,12.29,12.29,0,0,1-1.5-.18A1.63,1.63,0,0,1,105,29a1.43,1.43,0,0,0-.57-.16.89.89,0,0,0-.57.17.4.4,0,0,1-.32.05.32.32,0,0,1-.21-.35.78.78,0,0,0,0-.22.19.19,0,0,0-.12-.17,1.4,1.4,0,0,0-.29-.09.18.18,0,0,0-.22.14v0a.12.12,0,0,1-.11.12h-.13a.2.2,0,0,1-.15-.05l-.14-.12a.16.16,0,0,0-.15,0,1.09,1.09,0,0,0-.17.13l-.25.26a.61.61,0,0,0-.18.5.53.53,0,0,1-.11.21c-.11.11-.21.21-.32.3a2.53,2.53,0,0,0-.44.58c-.08.15-.16.29-.23.44a.31.31,0,0,0,.12.42l.07,0a1,1,0,0,0,.35,0,.63.63,0,0,0,.37-.17.89.89,0,0,1,.44-.25l.43-.07a1.13,1.13,0,0,0,.88-.51,1,1,0,0,1,.59-.45,2.72,2.72,0,0,1,1.3-.05l1,.21a3.44,3.44,0,0,1,.76.27,1,1,0,0,1,.45.44,2.09,2.09,0,0,1,.17.41.53.53,0,0,1-.08.5.57.57,0,0,0-.13.27.34.34,0,0,0,0,.2.22.22,0,0,1,0,.16.38.38,0,0,1-.24.28.37.37,0,0,0-.21.26.42.42,0,0,1-.29.29.39.39,0,0,1-.26,0,.73.73,0,0,0-.38-.08.3.3,0,0,0-.23.11.16.16,0,0,0,0,.23s0,0,0,0a.58.58,0,0,1,.25.18.43.43,0,0,0,.29.18,1.05,1.05,0,0,0,.58-.07,2.26,2.26,0,0,0,.58-.34.92.92,0,0,0,.31-.49.34.34,0,0,1,.14-.21.74.74,0,0,0,.32-.62,6.4,6.4,0,0,1,0-.76,1.79,1.79,0,0,0-.08-.69.24.24,0,0,1,0-.23.27.27,0,0,1,.22-.12h1.17a.37.37,0,0,1,.3.14.48.48,0,0,0,.35.19,1.78,1.78,0,0,1,.5.14.29.29,0,0,0,.4-.14v0a.53.53,0,0,1,.19-.23.28.28,0,0,0,.1-.35A.74.74,0,0,1,111.29,29.43Z"/><path class="cls-4" d="M104.72,32.22a1.82,1.82,0,0,0-.65-.55,5.92,5.92,0,0,0-.73-.31,2.08,2.08,0,0,0-.55-.12,1.39,1.39,0,0,0-.41,0l-.24.07a.25.25,0,0,0-.16.23.36.36,0,0,0,0,.36.59.59,0,0,0,.33.17.7.7,0,0,1,.47.28l.34.46a.8.8,0,0,0,.23.22l0,0a.2.2,0,0,1,0,.28.9.9,0,0,1-.4.23,1,1,0,0,0-.55.28,1.87,1.87,0,0,1-.45.33.33.33,0,0,0-.15.34.47.47,0,0,0,.2.29.35.35,0,0,1,.15.21.33.33,0,0,1-.18.4.64.64,0,0,1-.47,0,6,6,0,0,1-.84-.31,4,4,0,0,1-1.1-.75l-.78-.74a.31.31,0,0,1-.1-.27c0-.06,0-.12,0-.18a.22.22,0,0,0-.15-.28,1,1,0,0,0-.34-.05,1,1,0,0,0-.46.11.47.47,0,0,0-.23.21.34.34,0,0,0,0,.28,1.15,1.15,0,0,1,.11.31.21.21,0,0,0,.16.17.56.56,0,0,1,.2.11,1.16,1.16,0,0,0,.24.2c.36.25.7.51,1,.79a4.76,4.76,0,0,0,.78.55A5.75,5.75,0,0,0,101,36a.43.43,0,0,1,.28.38.49.49,0,0,1-.14.38,1.76,1.76,0,0,1-.54.36,1.19,1.19,0,0,1-1,0,2.46,2.46,0,0,1-.87-.63l-.68-.75-.42-.44a.18.18,0,0,0-.16-.05.11.11,0,0,0-.11.09,1.13,1.13,0,0,0,0,.41,1.38,1.38,0,0,0,.15.4,4.73,4.73,0,0,0,.43.57,6.13,6.13,0,0,0,.74.7l.72.57a.39.39,0,0,0,.36.07l.7-.16a1.78,1.78,0,0,0,.65-.28,7.43,7.43,0,0,1,.75-.49.57.57,0,0,0,.16-.15v0a.15.15,0,0,1,.21,0l.3.28a3.17,3.17,0,0,0,.49.4,1.19,1.19,0,0,0,.35.15,2.72,2.72,0,0,1,.43.15l.25.16a.16.16,0,0,0,.22,0,.25.25,0,0,0,.06-.26c0-.09-.07-.18-.1-.27a.21.21,0,0,0-.13-.13.57.57,0,0,0-.26,0h0a.07.07,0,0,1,0-.09.33.33,0,0,0,0-.29l-.13-.18a.26.26,0,0,0-.15-.12,1.36,1.36,0,0,0-.49,0,.7.7,0,0,1-.29,0,.17.17,0,0,1-.12-.18,1.82,1.82,0,0,0,0-.4.39.39,0,0,1,.11-.27.66.66,0,0,0,.19-.46,3.29,3.29,0,0,1,0-.54.89.89,0,0,1,.25-.48,1,1,0,0,1,.38-.25l.51-.17a.91.91,0,0,0,.34-.17l.22-.2a1.43,1.43,0,0,0,.2-.23.6.6,0,0,0,.1-.52A1.93,1.93,0,0,0,104.72,32.22Z"/><path class="cls-4" d="M120.23,52.41a.55.55,0,0,1,.33-.27.85.85,0,0,0,.51-.52.23.23,0,0,1,.23-.15h.22a.27.27,0,0,0,.22-.16,1.28,1.28,0,0,0,.09-.32.59.59,0,0,1,.22-.35.11.11,0,0,1,.15,0,.38.38,0,0,1,.14.19.78.78,0,0,1-.17.73.32.32,0,0,0,0,.34,3.42,3.42,0,0,0,.13.34.29.29,0,0,0,.34.19,1.32,1.32,0,0,1,.44,0,.78.78,0,0,0,.74-.21c.17-.16.35-.31.53-.46a.86.86,0,0,0,.31-.5,2,2,0,0,1,.25-.64,2.45,2.45,0,0,1,.47-.55.46.46,0,0,1,.51-.06.44.44,0,0,0,.52-.07,1.19,1.19,0,0,0,.27-.39.56.56,0,0,0-.07-.57,2.11,2.11,0,0,0-.47-.42.42.42,0,0,1-.17-.39.54.54,0,0,0-.21-.47.83.83,0,0,0-.46-.12.9.9,0,0,0-.52.17,1,1,0,0,0-.35.6.77.77,0,0,0,0,.37.67.67,0,0,0,.32.38.2.2,0,0,1,.1.27,1.35,1.35,0,0,1-.26.33,3.64,3.64,0,0,0-.45.43.83.83,0,0,0-.2.37.26.26,0,0,1-.21.18.39.39,0,0,0-.25.1,1.39,1.39,0,0,0-.21.21.23.23,0,0,1-.3.05.49.49,0,0,1-.19-.51,1,1,0,0,0,0-.46,1.77,1.77,0,0,0-.42-.68.54.54,0,0,0-.56-.12,1.4,1.4,0,0,1-.49.08,3.22,3.22,0,0,0-.75.1l-.58.13a3.31,3.31,0,0,1-.55.07,3.44,3.44,0,0,0-.56.09,1.36,1.36,0,0,0-.61.37.38.38,0,0,1-.35.12,1.35,1.35,0,0,0-.49,0,1.59,1.59,0,0,0-.66.3,1.08,1.08,0,0,0-.42.76,1,1,0,0,1-.37.7.83.83,0,0,0-.31.54.67.67,0,0,0,.17.54,1.33,1.33,0,0,1,.23.38.29.29,0,0,0,.37.17h0a2.14,2.14,0,0,1,.39-.16,2.13,2.13,0,0,0,.66-.32A.76.76,0,0,1,118,53a1.2,1.2,0,0,0,.69-.13,1.29,1.29,0,0,1,.84-.13A.66.66,0,0,0,120.23,52.41Z"/><path class="cls-4" d="M130.45,53.19a.35.35,0,0,1-.08-.32,1,1,0,0,0-.05-.59.41.41,0,0,0-.17-.22.13.13,0,0,0-.18,0v0c-.05.11-.1.22-.14.33a.46.46,0,0,1-.09.15l-.13.18a3.12,3.12,0,0,0-.27.43.06.06,0,0,1,0,.08.07.07,0,0,1-.1,0,1,1,0,0,0-.18-.13.31.31,0,0,0-.42.07.44.44,0,0,0-.08.4.26.26,0,0,0,.3.19.34.34,0,0,1,.33.15c.05.08.11.15.17.23a1.28,1.28,0,0,0,.29.28.7.7,0,0,0,.56.13.38.38,0,0,0,.29-.23,2.07,2.07,0,0,0,.12-.49,1.08,1.08,0,0,0,0-.31A.65.65,0,0,0,130.45,53.19Z"/><path class="cls-4" d="M128.79,55.41a11.41,11.41,0,0,0-1.34-.93,6.35,6.35,0,0,1-.74-.54.92.92,0,0,0-.53-.21.2.2,0,0,1-.18-.16.15.15,0,0,1,0-.07.23.23,0,0,1,.26-.2.52.52,0,0,1,.46-.11.48.48,0,0,0,.29,0,.63.63,0,0,0,.28-.2,2.14,2.14,0,0,0,.13-.19.2.2,0,0,0,0-.21.26.26,0,0,0-.22-.13h-.37a2.61,2.61,0,0,1-.74,0,1,1,0,0,0-.49,0,1.19,1.19,0,0,1-.62,0,.39.39,0,0,0-.45.16.76.76,0,0,1-.35.29,1.32,1.32,0,0,0-.64.55.47.47,0,0,0,0,.5.69.69,0,0,0,.24.24.82.82,0,0,0,.38.13.73.73,0,0,0,.48-.11.34.34,0,0,1,.31,0,1,1,0,0,0,.41.15.81.81,0,0,1,.39.2.64.64,0,0,0,.28.15,2.4,2.4,0,0,1,.38.12,1,1,0,0,1,.34.23.71.71,0,0,0,.52.22.39.39,0,0,1,.21.08l.46.36a5.36,5.36,0,0,0,.55.38,1.32,1.32,0,0,1,.35.32.2.2,0,0,1,.06.14.35.35,0,0,1-.14.3,3.28,3.28,0,0,1-.31.2.55.55,0,0,0-.18.16.28.28,0,0,1-.34.1,2.75,2.75,0,0,1-.38-.2l-1.28-.8-.31-.18a.79.79,0,0,0-.26-.08.19.19,0,0,1-.15-.19,2.83,2.83,0,0,0,0-.29.48.48,0,0,0-.12-.22.65.65,0,0,1-.16-.21.77.77,0,0,1-.07-.37.21.21,0,0,0-.09-.18.39.39,0,0,0-.2-.08.33.33,0,0,0-.17,0,.17.17,0,0,0-.09.21.64.64,0,0,1,0,.36.37.37,0,0,1-.14.22.5.5,0,0,1-.5,0l-.5-.26a.77.77,0,0,0-.71,0,.73.73,0,0,0-.32.33c-.08.15-.15.31-.22.47a.22.22,0,0,1-.26.11l-.75-.19a1.44,1.44,0,0,0-1,.14.92.92,0,0,1-.43.11.46.46,0,0,0-.2,0,.18.18,0,0,0-.09.12.21.21,0,0,0,.08.22l.77.63a1.92,1.92,0,0,0,1.1.42l.86.06a.17.17,0,0,1,.16.15.26.26,0,0,1-.13.26l-.18.07a2.18,2.18,0,0,1-.72,0,1.35,1.35,0,0,0-.53,0l-.34.14a1.41,1.41,0,0,0-.53.5,1.32,1.32,0,0,1-.37.41.72.72,0,0,0-.26.45.38.38,0,0,0,.11.3,2,2,0,0,0,.49.32,1.25,1.25,0,0,1,.63.57c.12.23.24.45.34.69a.94.94,0,0,1,.08.43.43.43,0,0,0,.13.36c.1.11.2.23.29.35a.52.52,0,0,0,.27.19.38.38,0,0,0,.31-.07.41.41,0,0,0,.14-.36,1.7,1.7,0,0,1,0-.45.56.56,0,0,1,.1-.28.37.37,0,0,1,.22-.14.65.65,0,0,0,.45-.27.53.53,0,0,0,.09-.35c0-.12,0-.25-.08-.37a.08.08,0,0,0-.1-.06.75.75,0,0,0-.32.1,1.75,1.75,0,0,0-.48.32.33.33,0,0,1-.3.06.72.72,0,0,1-.37-.34,2.88,2.88,0,0,1-.18-.49.75.75,0,0,0-.35-.45.28.28,0,0,1-.15-.23A.41.41,0,0,1,121,59l.82-.29a2.37,2.37,0,0,1,.83-.17.63.63,0,0,0,.36-.1,2,2,0,0,0,.58-.57.39.39,0,0,1,.25-.17.34.34,0,0,1,.36.13,1.26,1.26,0,0,0,.43.36l.4.17a.13.13,0,0,0,.18-.08.07.07,0,0,0,0,0,.35.35,0,0,1,.14-.27.26.26,0,0,0,.12-.29.22.22,0,0,0-.14-.18,4,4,0,0,0-.56-.26.63.63,0,0,1-.34-.34.84.84,0,0,0-.22-.31.89.89,0,0,0-.39-.19.64.64,0,0,1-.38-.24l-.15-.22a.29.29,0,0,1,0-.3.24.24,0,0,1,.12-.14.29.29,0,0,1,.34,0c.24.18.49.34.75.5a1.31,1.31,0,0,1,.53.54.68.68,0,0,0,.29.29.65.65,0,0,0,.51.06.39.39,0,0,1,.4.11,3.47,3.47,0,0,0,1.08.74l.77.3a.48.48,0,0,0,.37,0,1.91,1.91,0,0,1,.52-.19,1.16,1.16,0,0,0,.4-.16,1.24,1.24,0,0,0,.5-.67.78.78,0,0,0-.22-.78C129.39,55.91,129.09,55.65,128.79,55.41Z"/><path class="cls-4" d="M39.51,29.34a2.72,2.72,0,0,0-.55-.18,2.79,2.79,0,0,0-.64-.07h-.09a.67.67,0,0,1,.09.55.18.18,0,0,0,.06.17.51.51,0,0,1,.18.38v.2h.53a3.69,3.69,0,0,0,.47,0,.18.18,0,0,0,.14-.11,4.59,4.59,0,0,0,.15-.44.29.29,0,0,0,0-.24A.72.72,0,0,0,39.51,29.34Z"/><path class="cls-3" d="M172.17,132.82h11.18v.59h-.56a3.81,3.81,0,0,0-1.73.27,1.42,1.42,0,0,0-.67.72,7.93,7.93,0,0,0-.2,2.32v10.6a10.62,10.62,0,0,0,.44,3.85,3.58,3.58,0,0,0,1.44,1.56,4.71,4.71,0,0,0,2.54.62,5.46,5.46,0,0,0,3-.79,4.82,4.82,0,0,0,1.85-2.18,13.19,13.19,0,0,0,.61-4.83v-8.83a5.2,5.2,0,0,0-.3-2.08,1.82,1.82,0,0,0-.77-.86,4.46,4.46,0,0,0-2-.37v-.59h7.49v.59H194a2.83,2.83,0,0,0-1.52.37,2,2,0,0,0-.88,1.1,5.45,5.45,0,0,0-.21,1.84v8.22a21.23,21.23,0,0,1-.5,5.51,6.16,6.16,0,0,1-2.45,3.11,8.84,8.84,0,0,1-5.32,1.42,10.1,10.1,0,0,1-4.34-.75,6.34,6.34,0,0,1-3-2.62,9,9,0,0,1-.87-4.29v-10.6a8,8,0,0,0-.2-2.33,1.57,1.57,0,0,0-.72-.72,4.38,4.38,0,0,0-1.89-.26Z"/><path class="cls-3" d="M201.9,139.54v1.93a8.74,8.74,0,0,1,2.2-1.81,4.8,4.8,0,0,1,2.27-.56,3.61,3.61,0,0,1,2.41.8,3.84,3.84,0,0,1,1.27,2,14.73,14.73,0,0,1,.26,3.49v5.82a4.4,4.4,0,0,0,.31,2.14,1.86,1.86,0,0,0,1.3.54v.57h-7.55v-.57a1.58,1.58,0,0,0,1.21-.71,4.5,4.5,0,0,0,.26-2v-6.65a11.37,11.37,0,0,0-.14-2.31,1.41,1.41,0,0,0-.49-.74,1.2,1.2,0,0,0-.76-.27c-.92,0-1.77.66-2.55,2v8a4.44,4.44,0,0,0,.31,2.12,1.58,1.58,0,0,0,1.15.56v.57h-7.55v-.57a1.86,1.86,0,0,0,1.34-.61,4.43,4.43,0,0,0,.28-2.07v-8.44a4.19,4.19,0,0,0-.32-2.1,1.88,1.88,0,0,0-1.3-.55v-.59Z"/><path class="cls-3" d="M219.48,139.54v11.83a3.58,3.58,0,0,0,.37,2,2,2,0,0,0,1.44.51v.57h-8.07v-.57a2,2,0,0,0,1.47-.58,3.48,3.48,0,0,0,.32-1.95v-8.71a3.6,3.6,0,0,0-.36-2,2,2,0,0,0-1.43-.51v-.59Zm-2.23-7.23A2.33,2.33,0,0,1,219,133a2.47,2.47,0,0,1,0,3.49,2.44,2.44,0,0,1-1.75.71,2.44,2.44,0,0,1-2.46-2.46,2.37,2.37,0,0,1,.72-1.74A2.34,2.34,0,0,1,217.25,132.31Z"/><path class="cls-3" d="M229.15,154.92l-5-11.58a11.43,11.43,0,0,0-1.42-2.65,2,2,0,0,0-1.09-.56v-.59h7.94v.59a1.4,1.4,0,0,0-1,.28,1.07,1.07,0,0,0-.38.83,7,7,0,0,0,.7,2.21l2.46,5.61,2-4.84a9.17,9.17,0,0,0,.85-2.94,1,1,0,0,0-.36-.8,2.12,2.12,0,0,0-1.27-.35v-.59h4.88v.59a2,2,0,0,0-1.14.53,9.72,9.72,0,0,0-1.35,2.54l-5,11.72Z"/><path class="cls-3" d="M251.08,146.47h-8.19a7.75,7.75,0,0,0,1.58,4.7,3.35,3.35,0,0,0,2.65,1.32,3.05,3.05,0,0,0,1.74-.53,6.87,6.87,0,0,0,1.68-1.93l.54.35a9.08,9.08,0,0,1-2.68,3.51,5.75,5.75,0,0,1-3.4,1,5.65,5.65,0,0,1-5-2.56,8.94,8.94,0,0,1-1.37-5.1,8.45,8.45,0,0,1,2-5.95,6.18,6.18,0,0,1,4.73-2.21,5.15,5.15,0,0,1,3.94,1.86A8.47,8.47,0,0,1,251.08,146.47Zm-3.93-1.07a14.55,14.55,0,0,0-.28-3.53,2.83,2.83,0,0,0-.87-1.45,1.32,1.32,0,0,0-.89-.29,1.6,1.6,0,0,0-1.36.82,7,7,0,0,0-.94,3.89v.56Z"/><path class="cls-3" d="M258.82,139.54v3.39a11.18,11.18,0,0,1,2.6-3.08,3.89,3.89,0,0,1,2.16-.75,1.91,1.91,0,0,1,1.43.55,2.14,2.14,0,0,1,.53,1.55,2.39,2.39,0,0,1-.52,1.66,1.58,1.58,0,0,1-1.25.59,2.15,2.15,0,0,1-1.47-.54c-.42-.36-.66-.56-.73-.6a.66.66,0,0,0-.37-.1,1.37,1.37,0,0,0-.88.35,3.26,3.26,0,0,0-1,1.55,10.86,10.86,0,0,0-.51,3.42v4.32A3.45,3.45,0,0,0,259,153a1.2,1.2,0,0,0,.56.63,3.33,3.33,0,0,0,1.27.25v.57h-8.06v-.57a1.77,1.77,0,0,0,1.32-.54,4.94,4.94,0,0,0,.34-2.4V142.7a5.85,5.85,0,0,0-.13-1.62,1.27,1.27,0,0,0-.46-.66,2.53,2.53,0,0,0-1.07-.29v-.59Z"/><path class="cls-3" d="M276.25,139.13l.24,5.09h-.55a8.05,8.05,0,0,0-2-3.1,3.35,3.35,0,0,0-2.08-.83,1.58,1.58,0,0,0-1.12.44,1.36,1.36,0,0,0-.46,1,1.3,1.3,0,0,0,.32.83,15.5,15.5,0,0,0,2.86,2.24,12,12,0,0,1,3.09,2.7,4.41,4.41,0,0,1,.74,2.48,5.26,5.26,0,0,1-.62,2.44,4.4,4.4,0,0,1-1.76,1.84,5,5,0,0,1-2.51.64,8.68,8.68,0,0,1-2.86-.67,2.3,2.3,0,0,0-.65-.18c-.35,0-.64.27-.88.8h-.53l-.25-5.36h.54a7,7,0,0,0,2,3.16,3.81,3.81,0,0,0,2.38,1.05,1.75,1.75,0,0,0,1.25-.47,1.53,1.53,0,0,0,.49-1.14,2,2,0,0,0-.48-1.33,13.24,13.24,0,0,0-2.14-1.69,16.29,16.29,0,0,1-3.16-2.59,4.45,4.45,0,0,1-1.06-2.89,4.72,4.72,0,0,1,1.19-3.12,4.26,4.26,0,0,1,3.44-1.39,5,5,0,0,1,2.35.59,1.56,1.56,0,0,0,.7.24.84.84,0,0,0,.47-.12,3.23,3.23,0,0,0,.55-.68Z"/><path class="cls-3" d="M285,139.54v11.83a3.6,3.6,0,0,0,.36,2,2,2,0,0,0,1.44.51v.57h-8.06v-.57a2,2,0,0,0,1.47-.58,3.57,3.57,0,0,0,.32-1.95v-8.71a3.58,3.58,0,0,0-.37-2,2,2,0,0,0-1.42-.51v-.59Zm-2.24-7.23a2.47,2.47,0,0,1,1.75,4.22,2.5,2.5,0,0,1-3.49,0,2.47,2.47,0,0,1,0-3.49A2.34,2.34,0,0,1,282.8,132.31Z"/><path class="cls-3" d="M293.89,134.08v5.46h3.54v1.58h-3.54v9.22A7,7,0,0,0,294,152a1.18,1.18,0,0,0,.42.6.93.93,0,0,0,.56.23c.69,0,1.35-.52,2-1.58l.47.35a4.35,4.35,0,0,1-4.19,3.07,3.72,3.72,0,0,1-2.41-.79,3.55,3.55,0,0,1-1.25-1.76,14.88,14.88,0,0,1-.16-2.94v-8.07h-1.95v-.56a20.81,20.81,0,0,0,3.43-3,18,18,0,0,0,2.46-3.5Z"/><path class="cls-3" d="M305.38,155.08,300.56,144a14.51,14.51,0,0,0-1.61-3.08,2.73,2.73,0,0,0-1.25-.8v-.59h7.93v.59a1.9,1.9,0,0,0-1.1.31.84.84,0,0,0-.32.65,7.78,7.78,0,0,0,.8,2.4l2.56,5.84,1.74-4.52a11.44,11.44,0,0,0,.94-3.35,1.2,1.2,0,0,0-.39-.94,2.2,2.2,0,0,0-1.38-.39v-.59h5v.59a1.89,1.89,0,0,0-1.19.57,14,14,0,0,0-1.55,3.31l-4.27,11.07a24.17,24.17,0,0,1-2.39,5.11,3.45,3.45,0,0,1-2.76,1.34,3,3,0,0,1-2.15-.76,2.38,2.38,0,0,1-.82-1.83,2.19,2.19,0,0,1,.56-1.53,1.87,1.87,0,0,1,1.4-.61,1.72,1.72,0,0,1,1.29.51,2.3,2.3,0,0,1,.5,1.58,1.7,1.7,0,0,0,.14.79.45.45,0,0,0,.37.17,1.14,1.14,0,0,0,.81-.46,9.93,9.93,0,0,0,1.51-3.07Z"/><path class="cls-3" d="M329.44,139.1a6.94,6.94,0,0,1,3.63,1,6.44,6.44,0,0,1,2.54,2.86,9.42,9.42,0,0,1,.87,4.06,8.53,8.53,0,0,1-1.61,5.31,6.35,6.35,0,0,1-5.38,2.59,6.17,6.17,0,0,1-5.19-2.36,9.26,9.26,0,0,1,0-11.08A6.11,6.11,0,0,1,329.44,139.1Zm.06,1.13a1.84,1.84,0,0,0-1.39.61,4.27,4.27,0,0,0-.77,2.43q-.18,1.81-.18,5a21.31,21.31,0,0,0,.22,3.19,3.15,3.15,0,0,0,.75,1.73,1.79,1.79,0,0,0,1.31.59,1.85,1.85,0,0,0,1.2-.4,2.72,2.72,0,0,0,.83-1.52,37.11,37.11,0,0,0,.32-6.13,15.36,15.36,0,0,0-.3-3.73,3,3,0,0,0-.9-1.48A1.71,1.71,0,0,0,329.5,140.23Z"/><path class="cls-3" d="M345,141.11v10.36a3.44,3.44,0,0,0,.32,1.88,2.29,2.29,0,0,0,1.88.55v.57h-8.8v-.57a3.55,3.55,0,0,0,1.43-.23,1.22,1.22,0,0,0,.59-.6,5.27,5.27,0,0,0,.16-1.6V141.11h-2.18v-1.57h2.18v-1.1l0-.75a4.94,4.94,0,0,1,1.69-3.83,6.51,6.51,0,0,1,4.55-1.53,4.77,4.77,0,0,1,2.92.73,2.08,2.08,0,0,1,.95,1.63,1.62,1.62,0,0,1-.59,1.24,2.25,2.25,0,0,1-1.57.53,1.93,1.93,0,0,1-1.32-.43,1.28,1.28,0,0,1-.48-1,4,4,0,0,1,.09-.59,1.89,1.89,0,0,0,.07-.51.62.62,0,0,0-.19-.49.88.88,0,0,0-.63-.24.94.94,0,0,0-.77.38,1.91,1.91,0,0,0-.31,1.23l0,2.79v1.9h2.2v1.57Z"/><path class="cls-3" d="M385.41,132.33v7.5h-.63a8,8,0,0,0-2.62-4.5,6.62,6.62,0,0,0-4.34-1.57,6.41,6.41,0,0,0-3.72,1.17,6.76,6.76,0,0,0-2.47,3,13.8,13.8,0,0,0-1,5.36,17.64,17.64,0,0,0,.74,5.3,7,7,0,0,0,2.29,3.6,6.4,6.4,0,0,0,4.06,1.23,7.86,7.86,0,0,0,3.74-.9,12.78,12.78,0,0,0,3.59-3.08v1.87a11.88,11.88,0,0,1-3.79,2.75,11.53,11.53,0,0,1-4.61.86,13.27,13.27,0,0,1-6.15-1.39,9.89,9.89,0,0,1-4.16-4,11.22,11.22,0,0,1-1.46-5.54,11.8,11.8,0,0,1,6-10.19,11.86,11.86,0,0,1,5.85-1.53,13.27,13.27,0,0,1,4.82,1,7.43,7.43,0,0,0,1.87.57,1.22,1.22,0,0,0,.89-.37,2,2,0,0,0,.48-1.19Z"/><path class="cls-3" d="M394.07,132.82v8.64a9.3,9.3,0,0,1,2.25-1.83,4.47,4.47,0,0,1,2.12-.53,3.76,3.76,0,0,1,2.41.79,3.88,3.88,0,0,1,1.32,1.88,13.89,13.89,0,0,1,.33,3.63v5.83a4.19,4.19,0,0,0,.32,2.13,1.85,1.85,0,0,0,1.29.54v.57h-7.57v-.57a1.77,1.77,0,0,0,1.2-.64,4.35,4.35,0,0,0,.29-2v-6.66a10.38,10.38,0,0,0-.15-2.32,1.35,1.35,0,0,0-.48-.73,1.23,1.23,0,0,0-.78-.27,2.11,2.11,0,0,0-1.24.44,5.63,5.63,0,0,0-1.31,1.54v8a4.93,4.93,0,0,0,.24,2,1.56,1.56,0,0,0,1.24.67v.57H388v-.57a1.91,1.91,0,0,0,1.35-.61,4.43,4.43,0,0,0,.27-2.06V136.06a4.4,4.4,0,0,0-.31-2.11,2,2,0,0,0-1.31-.54v-.59Z"/><path class="cls-3" d="M411.66,139.54v11.83a3.6,3.6,0,0,0,.36,2,2,2,0,0,0,1.44.51v.57H405.4v-.57a2,2,0,0,0,1.47-.58,3.6,3.6,0,0,0,.31-1.95v-8.71a3.6,3.6,0,0,0-.36-2,2,2,0,0,0-1.42-.51v-.59Zm-2.24-7.23a2.47,2.47,0,0,1,1.75,4.22,2.44,2.44,0,0,1-1.75.71,2.44,2.44,0,0,1-2.46-2.46,2.37,2.37,0,0,1,.72-1.74A2.34,2.34,0,0,1,409.42,132.31Z"/><path class="cls-3" d="M420.69,139.54v1.93a8.74,8.74,0,0,1,2.2-1.81,4.8,4.8,0,0,1,2.27-.56,3.61,3.61,0,0,1,2.41.8,3.84,3.84,0,0,1,1.27,2,15.3,15.3,0,0,1,.26,3.49v5.82a4.4,4.4,0,0,0,.31,2.14,1.86,1.86,0,0,0,1.3.54v.57h-7.55v-.57a1.58,1.58,0,0,0,1.21-.71,4.5,4.5,0,0,0,.26-2v-6.65a11.37,11.37,0,0,0-.14-2.31,1.41,1.41,0,0,0-.49-.74,1.2,1.2,0,0,0-.76-.27c-.92,0-1.77.66-2.55,2v8a4.44,4.44,0,0,0,.31,2.12,1.58,1.58,0,0,0,1.15.56v.57H414.6v-.57a1.86,1.86,0,0,0,1.34-.61,4.48,4.48,0,0,0,.27-2.07v-8.44a4.23,4.23,0,0,0-.31-2.1,1.88,1.88,0,0,0-1.3-.55v-.59Z"/><path class="cls-3" d="M445.09,146.47H436.9a7.75,7.75,0,0,0,1.58,4.7,3.35,3.35,0,0,0,2.65,1.32,3.05,3.05,0,0,0,1.74-.53,6.87,6.87,0,0,0,1.68-1.93l.54.35a9.08,9.08,0,0,1-2.68,3.51,5.75,5.75,0,0,1-3.4,1,5.65,5.65,0,0,1-5-2.56,8.94,8.94,0,0,1-1.37-5.1,8.49,8.49,0,0,1,2-5.95,6.22,6.22,0,0,1,4.74-2.21,5.12,5.12,0,0,1,3.93,1.86A8.42,8.42,0,0,1,445.09,146.47Zm-3.93-1.07a14.55,14.55,0,0,0-.28-3.53,2.83,2.83,0,0,0-.87-1.45,1.32,1.32,0,0,0-.89-.29,1.59,1.59,0,0,0-1.36.82,7,7,0,0,0-.94,3.89v.56Z"/><path class="cls-3" d="M456.07,139.13l.24,5.09h-.55a8.05,8.05,0,0,0-2-3.1,3.35,3.35,0,0,0-2.08-.83,1.58,1.58,0,0,0-1.12.44,1.4,1.4,0,0,0-.46,1,1.36,1.36,0,0,0,.32.83,15.5,15.5,0,0,0,2.86,2.24,12,12,0,0,1,3.09,2.7,4.41,4.41,0,0,1,.74,2.48,5.26,5.26,0,0,1-.62,2.44,4.4,4.4,0,0,1-1.76,1.84,5,5,0,0,1-2.51.64,8.58,8.58,0,0,1-2.85-.67,2.33,2.33,0,0,0-.66-.18c-.35,0-.64.27-.88.8h-.52l-.26-5.36h.54a6.93,6.93,0,0,0,2,3.16,3.76,3.76,0,0,0,2.37,1.05,1.73,1.73,0,0,0,1.25-.47,1.53,1.53,0,0,0,.49-1.14,2,2,0,0,0-.48-1.33,12.78,12.78,0,0,0-2.14-1.69,16.62,16.62,0,0,1-3.16-2.59,4.45,4.45,0,0,1-1.06-2.89,4.72,4.72,0,0,1,1.19-3.12,4.28,4.28,0,0,1,3.44-1.39,5,5,0,0,1,2.35.59,1.56,1.56,0,0,0,.7.24.82.82,0,0,0,.47-.12,3.51,3.51,0,0,0,.56-.68Z"/><path class="cls-3" d="M471.68,146.47h-8.19a7.69,7.69,0,0,0,1.58,4.7,3.33,3.33,0,0,0,2.65,1.32,3.05,3.05,0,0,0,1.74-.53,6.71,6.71,0,0,0,1.67-1.93l.55.35a9.09,9.09,0,0,1-2.69,3.51,5.75,5.75,0,0,1-3.4,1,5.66,5.66,0,0,1-5-2.56,9,9,0,0,1-1.37-5.1,8.45,8.45,0,0,1,2-5.95,6.2,6.2,0,0,1,4.73-2.21,5.14,5.14,0,0,1,3.94,1.86A8.53,8.53,0,0,1,471.68,146.47Zm-3.93-1.07a14.55,14.55,0,0,0-.28-3.53,3,3,0,0,0-.87-1.45,1.35,1.35,0,0,0-.9-.29,1.57,1.57,0,0,0-1.35.82,7,7,0,0,0-.94,3.89v.56Z"/><path class="cls-3" d="M491.76,148.31h-7.65l-.91,2.11a4.8,4.8,0,0,0-.44,1.74,1.45,1.45,0,0,0,.73,1.34,6.12,6.12,0,0,0,2.12.38v.59h-7.2v-.59a3.27,3.27,0,0,0,1.92-1,12.83,12.83,0,0,0,1.85-3.27l7.75-17.28h.3L498,150.13a11,11,0,0,0,1.83,3.18,2.53,2.53,0,0,0,1.54.57v.59H490.93v-.59h.43a3.38,3.38,0,0,0,1.78-.35.87.87,0,0,0,.35-.73,2.15,2.15,0,0,0-.1-.6c0-.09-.18-.49-.48-1.19Zm-.54-1.18L488,139.67l-3.32,7.46Z"/><path class="cls-3" d="M514.73,150.62l.5.39A7.45,7.45,0,0,1,512.6,154a6.24,6.24,0,0,1-3.35,1,5.78,5.78,0,0,1-4.77-2.25,8.45,8.45,0,0,1-1.79-5.41,9.12,9.12,0,0,1,1.63-5.37,6.26,6.26,0,0,1,5.41-2.79,5.45,5.45,0,0,1,3.68,1.16,3.41,3.41,0,0,1,1.37,2.6,2,2,0,0,1-.55,1.46,2,2,0,0,1-1.45.54,2.11,2.11,0,0,1-1.55-.62,3.61,3.61,0,0,1-.76-2.22,2.55,2.55,0,0,0-.46-1.41,1.18,1.18,0,0,0-.87-.4,1.57,1.57,0,0,0-1.31.82,6.84,6.84,0,0,0-.83,3.77,12.35,12.35,0,0,0,.67,4,6.15,6.15,0,0,0,1.84,2.86,3.28,3.28,0,0,0,2.08.69,3.09,3.09,0,0,0,1.48-.37A6.53,6.53,0,0,0,514.73,150.62Z"/><path class="cls-3" d="M525,152.27q-2.73,2.41-4.9,2.41a2.88,2.88,0,0,1-2.12-.84,2.82,2.82,0,0,1-.85-2.1,4.1,4.1,0,0,1,1.47-3.07A28,28,0,0,1,525,145v-1.51a7.47,7.47,0,0,0-.18-2.13,1.66,1.66,0,0,0-.69-.76,2.09,2.09,0,0,0-1.15-.33,2.92,2.92,0,0,0-1.71.46.82.82,0,0,0-.42.67,1.37,1.37,0,0,0,.45.83,2.08,2.08,0,0,1,.61,1.33,1.77,1.77,0,0,1-.59,1.33,2.09,2.09,0,0,1-1.52.55,2.48,2.48,0,0,1-1.69-.6,1.87,1.87,0,0,1-.67-1.43,3.3,3.3,0,0,1,.91-2.19,5.76,5.76,0,0,1,2.53-1.61,10.47,10.47,0,0,1,3.39-.55,5.58,5.58,0,0,1,3.36.9,4.24,4.24,0,0,1,1.61,1.95,13.34,13.34,0,0,1,.22,3.09v5.79a5.64,5.64,0,0,0,.08,1.29.77.77,0,0,0,.24.39.59.59,0,0,0,.36.13c.28,0,.56-.2.85-.59l.48.38a5.65,5.65,0,0,1-1.65,1.71,3.56,3.56,0,0,1-1.94.54,3,3,0,0,1-2-.6A2.72,2.72,0,0,1,525,152.27Zm0-1.17v-5a9.37,9.37,0,0,0-2.87,2.42,3,3,0,0,0-.62,1.74,1.85,1.85,0,0,0,.52,1.3,1.48,1.48,0,0,0,1.12.43A3.05,3.05,0,0,0,525,151.1Z"/><path class="cls-3" d="M547.27,132.82V150a10.81,10.81,0,0,0,.1,2.06,1.25,1.25,0,0,0,.48.78,2.58,2.58,0,0,0,1.26.32v.53l-6.31,1.23v-2.36a8,8,0,0,1-2,1.86,4,4,0,0,1-2,.5,5.13,5.13,0,0,1-4.52-2.56,9.13,9.13,0,0,1-1.34-5.09,10.6,10.6,0,0,1,.83-4.32,6.47,6.47,0,0,1,2.27-2.88,5.47,5.47,0,0,1,3.11-1,4.15,4.15,0,0,1,1.9.41A6.53,6.53,0,0,1,542.8,141v-4.5a8.47,8.47,0,0,0-.14-2.06,1.31,1.31,0,0,0-.58-.68,3.08,3.08,0,0,0-1.43-.23v-.67Zm-4.47,10.12c-.79-1.51-1.75-2.26-2.89-2.26a1.42,1.42,0,0,0-1,.32,3.54,3.54,0,0,0-1,1.74,14.29,14.29,0,0,0-.37,3.81,15.42,15.42,0,0,0,.41,4.19,4.15,4.15,0,0,0,1.13,2,1.56,1.56,0,0,0,1,.3c.94,0,1.82-.73,2.65-2.2Z"/><path class="cls-3" d="M563.26,146.47h-8.19a7.75,7.75,0,0,0,1.58,4.7,3.35,3.35,0,0,0,2.65,1.32A3.05,3.05,0,0,0,561,152a6.72,6.72,0,0,0,1.68-1.93l.54.35a9.08,9.08,0,0,1-2.68,3.51,5.75,5.75,0,0,1-3.4,1,5.66,5.66,0,0,1-5-2.56,8.94,8.94,0,0,1-1.37-5.1,8.45,8.45,0,0,1,2-5.95,6.18,6.18,0,0,1,4.73-2.21,5.15,5.15,0,0,1,3.94,1.86A8.47,8.47,0,0,1,563.26,146.47Zm-3.93-1.07a15.26,15.26,0,0,0-.27-3.53,3,3,0,0,0-.87-1.45,1.37,1.37,0,0,0-.9-.29,1.59,1.59,0,0,0-1.36.82,7,7,0,0,0-.94,3.89v.56Z"/><path class="cls-3" d="M571,139.54v2a8.65,8.65,0,0,1,2.27-1.88,5,5,0,0,1,2.3-.53,3.85,3.85,0,0,1,3.91,2.71,9.58,9.58,0,0,1,2.45-2.08,5.11,5.11,0,0,1,2.45-.63,3.92,3.92,0,0,1,2.47.71,3.66,3.66,0,0,1,1.27,1.8,12.17,12.17,0,0,1,.36,3.49v6.12a4.45,4.45,0,0,0,.31,2.13,1.93,1.93,0,0,0,1.31.55v.57h-7.72v-.57a1.71,1.71,0,0,0,1.34-.71,4.06,4.06,0,0,0,.29-2V144.8a11.67,11.67,0,0,0-.16-2.54,1.5,1.5,0,0,0-.5-.81,1.33,1.33,0,0,0-.81-.26,2.35,2.35,0,0,0-1.39.5,6.75,6.75,0,0,0-1.42,1.51v8a4.54,4.54,0,0,0,.27,2,1.68,1.68,0,0,0,1.41.66v.57h-7.73v-.57a1.73,1.73,0,0,0,1-.31,1.36,1.36,0,0,0,.48-.67,7.42,7.42,0,0,0,.12-1.7V144.8a11.35,11.35,0,0,0-.16-2.54,1.51,1.51,0,0,0-.53-.8,1.32,1.32,0,0,0-.81-.29,2,2,0,0,0-1.16.34,6.26,6.26,0,0,0-1.6,1.69v8a4.51,4.51,0,0,0,.31,2.08,1.65,1.65,0,0,0,1.3.6v.57h-7.69v-.57a1.9,1.9,0,0,0,1.34-.61,4.48,4.48,0,0,0,.27-2.07v-8.44a4.35,4.35,0,0,0-.31-2.1,1.93,1.93,0,0,0-1.3-.55v-.59Z"/><path class="cls-3" d="M598.56,155.08,593.74,144a14.18,14.18,0,0,0-1.6-3.08,2.83,2.83,0,0,0-1.25-.8v-.59h7.93v.59a1.9,1.9,0,0,0-1.1.31.84.84,0,0,0-.32.65,7.78,7.78,0,0,0,.8,2.4l2.55,5.84,1.74-4.52a11.24,11.24,0,0,0,1-3.35,1.21,1.21,0,0,0-.4-.94,2.2,2.2,0,0,0-1.38-.39v-.59h5v.59a1.94,1.94,0,0,0-1.2.57,14.45,14.45,0,0,0-1.55,3.31l-4.26,11.07a24.17,24.17,0,0,1-2.39,5.11,3.46,3.46,0,0,1-2.77,1.34,3,3,0,0,1-2.14-.76,2.39,2.39,0,0,1-.83-1.83,2.15,2.15,0,0,1,.57-1.53,1.85,1.85,0,0,1,1.4-.61,1.68,1.68,0,0,1,1.28.51,2.25,2.25,0,0,1,.51,1.58,1.58,1.58,0,0,0,.14.79.44.44,0,0,0,.37.17,1.18,1.18,0,0,0,.81-.46,9.75,9.75,0,0,0,1.5-3.07Z"/><path class="cls-3" d="M622.63,139.1a6.91,6.91,0,0,1,3.62,1A6.4,6.4,0,0,1,628.8,143a9.42,9.42,0,0,1,.87,4.06,8.6,8.6,0,0,1-1.61,5.31,6.35,6.35,0,0,1-5.38,2.59,6.17,6.17,0,0,1-5.19-2.36,8.71,8.71,0,0,1-1.82-5.48,8.85,8.85,0,0,1,1.86-5.6A6.11,6.11,0,0,1,622.63,139.1Zm.06,1.13a1.83,1.83,0,0,0-1.39.61,4.27,4.27,0,0,0-.77,2.43c-.12,1.21-.19,2.89-.19,5a21.27,21.27,0,0,0,.23,3.19,3.15,3.15,0,0,0,.75,1.73,1.79,1.79,0,0,0,1.31.59,1.85,1.85,0,0,0,1.2-.4,2.72,2.72,0,0,0,.83-1.52,37.5,37.5,0,0,0,.31-6.13,15.36,15.36,0,0,0-.3-3.73,2.9,2.9,0,0,0-.89-1.48A1.71,1.71,0,0,0,622.69,140.23Z"/><path class="cls-3" d="M638.16,141.11v10.36a3.46,3.46,0,0,0,.31,1.88,2.3,2.3,0,0,0,1.89.55v.57h-8.8v-.57a3.58,3.58,0,0,0,1.43-.23,1.2,1.2,0,0,0,.58-.6,5,5,0,0,0,.16-1.6V141.11h-2.17v-1.57h2.17v-1.85a5,5,0,0,1,1.68-3.83,6.52,6.52,0,0,1,4.56-1.53,4.72,4.72,0,0,1,2.91.73,2.05,2.05,0,0,1,1,1.63,1.58,1.58,0,0,1-.59,1.24,2.2,2.2,0,0,1-1.56.53,1.93,1.93,0,0,1-1.32-.43,1.29,1.29,0,0,1-.49-1,4.6,4.6,0,0,1,.1-.59A2.35,2.35,0,0,0,640,134a.59.59,0,0,0-.19-.49.88.88,0,0,0-.62-.24.92.92,0,0,0-.77.38,1.91,1.91,0,0,0-.32,1.23l0,2.79v1.9h2.2v1.57Z"/><path class="cls-3" d="M664.28,132.33l.17,7.21h-.65a7.37,7.37,0,0,0-2.28-4.36,5.69,5.69,0,0,0-3.92-1.66,3.65,3.65,0,0,0-2.57.87,2.64,2.64,0,0,0-1,2,2.5,2.5,0,0,0,.34,1.28,5.44,5.44,0,0,0,1.48,1.48,35,35,0,0,0,3.47,1.87,15.24,15.24,0,0,1,5.12,3.53,5.92,5.92,0,0,1,1.32,3.8,6.16,6.16,0,0,1-2.12,4.67,7.61,7.61,0,0,1-5.37,1.95,9.31,9.31,0,0,1-1.94-.2,14.58,14.58,0,0,1-2.28-.79,3.51,3.51,0,0,0-1.26-.32,1.59,1.59,0,0,0-.88.32,2.25,2.25,0,0,0-.75,1h-.59v-8.18h.59a9.33,9.33,0,0,0,2.71,5.26,6.32,6.32,0,0,0,4.32,1.82,4.06,4.06,0,0,0,2.85-1,3,3,0,0,0,1.06-2.27,3,3,0,0,0-.41-1.48,4.73,4.73,0,0,0-1.24-1.37,18.35,18.35,0,0,0-2.94-1.68,25,25,0,0,1-4.24-2.48,7.58,7.58,0,0,1-2-2.28,5.7,5.7,0,0,1-.69-2.78,5.85,5.85,0,0,1,1.9-4.4,6.6,6.6,0,0,1,4.79-1.82,8.14,8.14,0,0,1,2,.25,11,11,0,0,1,1.83.71,4.23,4.23,0,0,0,1.51.52.85.85,0,0,0,.65-.25,3,3,0,0,0,.45-1.23Z"/><path class="cls-3" d="M680.06,150.62l.5.39a7.45,7.45,0,0,1-2.63,2.94,6.24,6.24,0,0,1-3.35,1,5.78,5.78,0,0,1-4.77-2.25,8.45,8.45,0,0,1-1.79-5.41,9.05,9.05,0,0,1,1.63-5.37,6.26,6.26,0,0,1,5.41-2.79,5.45,5.45,0,0,1,3.68,1.16,3.41,3.41,0,0,1,1.37,2.6,2,2,0,0,1-.55,1.46,2,2,0,0,1-1.45.54,2.09,2.09,0,0,1-1.55-.62,3.61,3.61,0,0,1-.76-2.22,2.55,2.55,0,0,0-.46-1.41,1.18,1.18,0,0,0-.87-.4,1.57,1.57,0,0,0-1.31.82,6.84,6.84,0,0,0-.83,3.77,12.35,12.35,0,0,0,.67,4,6.15,6.15,0,0,0,1.84,2.86,3.28,3.28,0,0,0,2.08.69,3.09,3.09,0,0,0,1.48-.37A6.53,6.53,0,0,0,680.06,150.62Z"/><path class="cls-3" d="M687.89,139.54v11.83a3.58,3.58,0,0,0,.37,2,2,2,0,0,0,1.44.51v.57h-8.07v-.57a2,2,0,0,0,1.47-.58,3.48,3.48,0,0,0,.32-1.95v-8.71a3.49,3.49,0,0,0-.37-2,1.94,1.94,0,0,0-1.42-.51v-.59Zm-2.23-7.23a2.33,2.33,0,0,1,1.75.73,2.47,2.47,0,0,1,0,3.49,2.44,2.44,0,0,1-1.75.71,2.44,2.44,0,0,1-2.46-2.46,2.37,2.37,0,0,1,.72-1.74A2.34,2.34,0,0,1,685.66,132.31Z"/><path class="cls-3" d="M703.47,146.47h-8.19a7.75,7.75,0,0,0,1.58,4.7,3.34,3.34,0,0,0,2.65,1.32,3.05,3.05,0,0,0,1.74-.53,6.87,6.87,0,0,0,1.68-1.93l.54.35a9.08,9.08,0,0,1-2.68,3.51,5.77,5.77,0,0,1-3.4,1,5.65,5.65,0,0,1-5-2.56,9,9,0,0,1-1.38-5.1,8.49,8.49,0,0,1,2-5.95,6.22,6.22,0,0,1,4.74-2.21,5.12,5.12,0,0,1,3.93,1.86A8.47,8.47,0,0,1,703.47,146.47Zm-3.93-1.07a14.55,14.55,0,0,0-.28-3.53,2.83,2.83,0,0,0-.87-1.45,1.32,1.32,0,0,0-.89-.29,1.59,1.59,0,0,0-1.36.82,7,7,0,0,0-.94,3.89v.56Z"/><path class="cls-3" d="M711.11,139.54v1.93a8.91,8.91,0,0,1,2.2-1.81,4.83,4.83,0,0,1,2.27-.56,3.6,3.6,0,0,1,2.41.8,3.86,3.86,0,0,1,1.28,2,15.49,15.49,0,0,1,.25,3.49v5.82a4.36,4.36,0,0,0,.32,2.14,1.84,1.84,0,0,0,1.3.54v.57h-7.56v-.57a1.59,1.59,0,0,0,1.22-.71,4.56,4.56,0,0,0,.25-2v-6.65a10.64,10.64,0,0,0-.14-2.31,1.41,1.41,0,0,0-.49-.74,1.2,1.2,0,0,0-.76-.27c-.91,0-1.76.66-2.55,2v8a4.44,4.44,0,0,0,.31,2.12,1.6,1.6,0,0,0,1.16.56v.57H705v-.57a1.9,1.9,0,0,0,1.34-.61,4.48,4.48,0,0,0,.27-2.07v-8.44a4.23,4.23,0,0,0-.31-2.1,1.9,1.9,0,0,0-1.3-.55v-.59Z"/><path class="cls-3" d="M735.05,150.62l.5.39a7.38,7.38,0,0,1-2.63,2.94,6.23,6.23,0,0,1-3.34,1,5.8,5.8,0,0,1-4.78-2.25,8.45,8.45,0,0,1-1.79-5.41,9.12,9.12,0,0,1,1.63-5.37,6.27,6.27,0,0,1,5.41-2.79,5.45,5.45,0,0,1,3.68,1.16,3.41,3.41,0,0,1,1.37,2.6,2,2,0,0,1-.55,1.46,2,2,0,0,1-1.45.54,2.11,2.11,0,0,1-1.55-.62,3.61,3.61,0,0,1-.76-2.22,2.55,2.55,0,0,0-.46-1.41,1.18,1.18,0,0,0-.86-.4,1.57,1.57,0,0,0-1.32.82,6.84,6.84,0,0,0-.83,3.77,12.35,12.35,0,0,0,.67,4,6.15,6.15,0,0,0,1.84,2.86,3.28,3.28,0,0,0,2.08.69,3.09,3.09,0,0,0,1.48-.37A6.53,6.53,0,0,0,735.05,150.62Z"/><path class="cls-3" d="M749.7,146.47h-8.19a7.75,7.75,0,0,0,1.58,4.7,3.35,3.35,0,0,0,2.65,1.32,3.05,3.05,0,0,0,1.74-.53,6.87,6.87,0,0,0,1.68-1.93l.54.35a9.08,9.08,0,0,1-2.68,3.51,5.75,5.75,0,0,1-3.4,1,5.65,5.65,0,0,1-5-2.56,8.94,8.94,0,0,1-1.37-5.1,8.45,8.45,0,0,1,2-5.95A6.18,6.18,0,0,1,744,139.1a5.15,5.15,0,0,1,3.94,1.86A8.47,8.47,0,0,1,749.7,146.47Zm-3.93-1.07a14.55,14.55,0,0,0-.28-3.53,2.89,2.89,0,0,0-.86-1.45,1.37,1.37,0,0,0-.9-.29,1.59,1.59,0,0,0-1.36.82,7,7,0,0,0-.94,3.89v.56Z"/><path class="cls-3" d="M760.68,139.13l.24,5.09h-.54a8.17,8.17,0,0,0-2-3.1,3.38,3.38,0,0,0-2.09-.83,1.6,1.6,0,0,0-1.12.44,1.4,1.4,0,0,0-.46,1,1.36,1.36,0,0,0,.32.83,15.5,15.5,0,0,0,2.86,2.24,12,12,0,0,1,3.09,2.7,4.41,4.41,0,0,1,.74,2.48,5.26,5.26,0,0,1-.62,2.44,4.4,4.4,0,0,1-1.76,1.84,5,5,0,0,1-2.51.64,8.58,8.58,0,0,1-2.85-.67,2.33,2.33,0,0,0-.66-.18c-.35,0-.64.27-.88.8h-.52l-.26-5.36h.55a6.84,6.84,0,0,0,2,3.16,3.76,3.76,0,0,0,2.37,1.05,1.73,1.73,0,0,0,1.25-.47,1.5,1.5,0,0,0,.49-1.14,2,2,0,0,0-.48-1.33,12.78,12.78,0,0,0-2.14-1.69,16.62,16.62,0,0,1-3.16-2.59,4.51,4.51,0,0,1-1.06-2.89,4.72,4.72,0,0,1,1.19-3.12,4.28,4.28,0,0,1,3.44-1.39,4.94,4.94,0,0,1,2.35.59,1.56,1.56,0,0,0,.71.24.81.81,0,0,0,.46-.12,3.17,3.17,0,0,0,.56-.68Z"/></g></svg>